<?xml version="1.0" encoding="utf-8"?>
<!-- Generator: Adobe Illustrator 20.1.0, SVG Export Plug-In . SVG Version: 6.00 Build 0)  -->
<svg version="1.1" id="Layer_1" xmlns="http://www.w3.org/2000/svg" xmlns:xlink="http://www.w3.org/1999/xlink" x="0px" y="0px"
	 viewBox="0 0 411.2 252.4" style="enable-background:new 0 0 411.2 252.4;" xml:space="preserve">
<path d="M401.4,146h-14V26.5h-43.3v-14h57.3V146z M44.7,171.7c-19.9,0-35.6,15-35.6,34.6s15.7,34.6,35.5,34.6
	c12.9,0,23.8-6.4,29.5-16.6l-10.3-7.3c-4.5,7.1-10.7,11.2-19.1,11.2c-12.4,0-21.5-9-21.5-21.9c0-12.9,9.1-22.1,21.5-22.1
	c8.4,0,14.7,4.1,19.1,11.2l10.3-7.3C68.3,178.1,57.6,171.7,44.7,171.7z M127.2,171.7c-19.6,0-35.4,15-35.4,34.6s15.8,34.6,35.4,34.6
	s35.6-15,35.6-34.6S146.9,171.7,127.2,171.7z M127.3,184.4c12.2,0,21.4,9.1,21.4,22c0,12.9-9.2,21.9-21.4,21.9
	c-12.4,0-21.4-9-21.4-21.9C105.9,193.5,114.9,184.4,127.3,184.4z M320.4,239.5h14.3l-29-66.3h-4.4l-29.1,66.3h14.3l3.6-8.5h26.6
	L320.4,239.5z M312,220h-17.2l8.6-21.9L312,220z M390.6,203.6c3.1-3,4.9-7,4.9-12c0-10.9-8.7-18.5-21-18.5h-10.4h-13.1v66.3h6.6
	h22.9c12.9,0,21.8-8,21.8-19.5C402.4,212,398,206.2,390.6,203.6z M373.4,184.8c5.6,0,8.6,2.9,8.6,7.5c0,4.5-3,7.6-8.6,7.6h-9.3
	v-15.2H373.4z M379.6,227.8h-15.5v-16.7h15.5c5.9,0,9.4,3.2,9.4,8.3C389,224.7,385.5,227.8,379.6,227.8z M256.9,225.5h-62.3V106.9
	h-14v132.6h76.3V225.5z M202.2,17v-3.8h-8.9h-3.8h-8.9V17h8.9v14h-8.9v3.8h8.9h3.8h8.9V31h-8.9V17H202.2z M256,17v-3.8h-5.8h-16V17
	v14v3.8h16.2h5.6V31h-17.9v-5.1h13.9v-3.8h-13.9V17H256z M218.4,13.2c6.6,0.2,11.1,4.8,11.1,10.7c0,6.1-4.6,10.7-11.3,10.8h-0.2
	h-0.7h-2.1h-4.1h-3.2v-3V15.4v-2.2h3.5h3.9h2.1h0.7L218.4,13.2L218.4,13.2 M218.2,31c4.3-0.1,7.1-3,7.1-7c0-4-2.8-7-7-7.1h-6.2h-0.4
	v0h0V31h0h0.2v0L218.2,31L218.2,31 M271.4,12.2c6.6,0,11.9,5.3,11.9,11.7c0,6.5-5.3,11.7-11.9,11.7c-6.6,0-11.9-5.3-11.9-11.7
	C259.5,17.5,264.8,12.2,271.4,12.2 M271.4,31.7c4.3,0,7.8-3.4,7.8-7.7c0-4.2-3.5-7.7-7.8-7.7c-4.3,0-7.8,3.4-7.8,7.7
	C263.6,28.2,267.1,31.7,271.4,31.7"/>
</svg>
