<?xml version="1.0" encoding="utf-8"?>
<!-- Generator: Adobe Illustrator 20.1.0, SVG Export Plug-In . SVG Version: 6.00 Build 0)  -->
<svg version="1.1" id="Layer_1" xmlns="http://www.w3.org/2000/svg" xmlns:xlink="http://www.w3.org/1999/xlink" x="0px" y="0px"
	 viewBox="0 0 360 414" style="enable-background:new 0 0 360 414;" xml:space="preserve">
<path d="M329.2,268.7l-19,0l0-162.8l-59,0l0-19l78,0L329.2,268.7z M75.5,86.5c-27.1,0-48.5,20.4-48.5,47.1s21.4,47.1,48.4,47.1
	c17.6,0,32.4-8.7,40.2-22.6l-14.1-9.9c-6.1,9.6-14.6,15.3-26,15.3c-16.9,0-29.4-12.3-29.4-29.8c0-17.6,12.4-30,29.4-30
	c11.4,0,20,5.7,26,15.3l14.1-9.9C107.6,95.2,93,86.5,75.5,86.5z M187.9,86.5c-26.7,0-48.2,20.4-48.2,47.1
	c0,26.7,21.5,47.1,48.2,47.1s48.5-20.4,48.5-47.1S214.7,86.5,187.9,86.5z M188.1,103.7c16.7,0,29.2,12.4,29.2,29.9
	c0,17.6-12.5,29.9-29.2,29.9c-16.9,0-29.2-12.3-29.2-29.9C158.8,116.1,171.1,103.7,188.1,103.7z M217.3,396l19.5,0l-39.5-90.3h-6
	L151.6,396h19.5l5-11.6l36.3,0L217.3,396z M205.9,369.5h-23.4l11.7-29.8L205.9,369.5z M314.6,347.1c4.2-4.1,6.7-9.6,6.7-16.3
	c0-14.9-11.9-25.2-28.6-25.2h-14.2h-17.8l0,90.3h9l31.2,0c17.5,0,29.7-10.9,29.7-26.5C330.6,358.5,324.6,350.7,314.6,347.1z
	 M291.2,321.6c7.7,0,11.8,4,11.8,10.3c0,6.2-4.1,10.4-11.8,10.4h-12.7l0-20.7L291.2,321.6z M299.5,380.1h-21.1l0-22.7h21.1
	c8.1,0,12.9,4.4,12.9,11.4C312.4,375.9,307.6,380.1,299.5,380.1z M131.6,376.9l-84.1,0l0-161.6l-19.1,0l0,180.6l103.1,0V376.9z
	 M57.9,33.5l0-5.2l-12.1,0l-5.2,0l-12.1,0l0,5.2l12.1,0l0,19.1l-12.1,0l0,5.2l12.1,0l5.2,0l12.1,0l0-5.2l-12.1,0l0-19.1L57.9,33.5z
	 M131.2,33.4v-5.1l-7.8,0l-21.8,0v5.1l0,19.1v5.1l22,0l7.6,0v-5.1l-24.3,0l0-7l19,0v-5.1l-19,0l0-7L131.2,33.4z M80,28.3
	c9,0.2,15.1,6.5,15.1,14.6c0,8.2-6.3,14.6-15.4,14.7l-0.2,0h-1h-2.8l-5.6,0l-4.4,0l0-4.1l0-22.3v-3l4.7,0l5.4,0l2.8,0l1,0L80,28.3
	L80,28.3 M79.7,52.6c5.8-0.1,9.6-4.1,9.6-9.6c0-5.5-3.8-9.5-9.6-9.7l-8.4,0h-0.5v0h0l0,19.2h0h0.3v0L79.7,52.6L79.7,52.6 M152.1,27
	c8.9,0,16.2,7.2,16.2,16c0,8.8-7.2,16-16.2,16c-8.9,0-16.2-7.2-16.2-16C136,34.2,143.2,27,152.1,27 M152.1,53.4
	c5.8,0,10.6-4.7,10.6-10.5c0-5.8-4.7-10.5-10.6-10.5c-5.8,0-10.6,4.7-10.6,10.5C141.5,48.8,146.3,53.4,152.1,53.4"/>
</svg>
