<?xml version="1.0" encoding="utf-8"?>
<!-- Generator: Adobe Illustrator 20.1.0, SVG Export Plug-In . SVG Version: 6.00 Build 0)  -->
<svg version="1.1" id="Layer_1" xmlns="http://www.w3.org/2000/svg" xmlns:xlink="http://www.w3.org/1999/xlink" x="0px" y="0px"
	 viewBox="0 0 360 414" style="enable-background:new 0 0 360 414;" xml:space="preserve">
<style type="text/css">
	.st0{fill:#010101;}
</style>
<g>
	<g>
		<polygon class="st0" points="329.2,268.7 310.2,268.7 310.2,105.8 251.2,105.8 251.2,86.8 329.2,86.8 		"/>
	</g>
	<path class="st0" d="M115.6,109.1l-14.1,9.9c-6.1-9.6-14.6-15.3-26-15.3c-16.9,0-29.4,12.4-29.4,30c0,17.5,12.4,29.8,29.4,29.8
		c11.4,0,20-5.7,26-15.3l14.1,9.9c-7.9,13.9-22.6,22.6-40.2,22.6c-27,0-48.4-20.4-48.4-47.1s21.4-47.1,48.5-47.1
		C93,86.5,107.6,95.2,115.6,109.1z"/>
	<path class="st0" d="M236.4,133.6c0,26.7-21.8,47.1-48.5,47.1s-48.2-20.4-48.2-47.1c0-26.7,21.5-47.1,48.2-47.1
		S236.4,106.9,236.4,133.6z M158.8,133.6c0,17.6,12.3,29.9,29.2,29.9c16.7,0,29.2-12.3,29.2-29.9c0-17.5-12.5-29.9-29.2-29.9
		C171.1,103.7,158.8,116.1,158.8,133.6z"/>
	<path class="st0" d="M212.3,384.4l-36.3,0l-5,11.6h-19.5l39.6-90.3h6l39.5,90.3l-19.5,0L212.3,384.4z M194.2,339.7l-11.7,29.8h23.4
		L194.2,339.7z"/>
	<path class="st0" d="M330.6,369.5c0,15.6-12.2,26.5-29.7,26.5l-31.2,0h-9l0-90.3h17.8h14.2c16.7,0,28.6,10.3,28.6,25.2
		c0,6.7-2.5,12.2-6.7,16.3C324.6,350.7,330.6,358.5,330.6,369.5z M278.5,321.6l0,20.7h12.7c7.7,0,11.8-4.2,11.8-10.4
		c0-6.3-4.1-10.3-11.8-10.3L278.5,321.6z M312.4,368.8c0-7-4.8-11.4-12.9-11.4h-21.1l0,22.7h21.1
		C307.6,380.1,312.4,375.9,312.4,368.8z"/>
	<g>
		<polygon class="st0" points="131.6,396 28.5,396 28.5,215.4 47.5,215.4 47.5,376.9 131.6,376.9 		"/>
	</g>
	<polygon class="st0" points="57.9,33.5 57.9,28.3 45.7,28.3 40.6,28.3 28.5,28.3 28.5,33.5 40.5,33.5 40.5,52.5 28.5,52.5 
		28.5,57.7 40.6,57.7 45.7,57.7 57.9,57.7 57.9,52.5 45.8,52.5 45.8,33.5 	"/>
	<polygon class="st0" points="131.2,33.4 131.2,28.3 123.4,28.3 101.6,28.3 101.6,33.4 101.6,52.5 101.6,57.7 123.6,57.7 
		131.2,57.7 131.2,52.5 106.9,52.5 106.9,45.6 125.9,45.6 125.9,40.4 106.9,40.4 106.9,33.4 	"/>
	<path class="st0" d="M80,28.3L80,28.3l-0.5,0l-1,0l-2.8,0l-5.4,0l-4.7,0v3l0,22.3l0,4.1l4.4,0l5.6,0h2.8h1l0.2,0
		c9.1-0.1,15.4-6.5,15.4-14.7C95.1,34.8,89,28.5,80,28.3 M79.7,52.6L79.7,52.6l-8.5,0v0h-0.3h0l0-19.2h0v0h0.5l8.4,0
		c5.8,0.1,9.6,4.2,9.6,9.7C89.4,48.5,85.6,52.5,79.7,52.6"/>
	<path class="st0" d="M152.1,27c-8.9,0-16.2,7.2-16.2,16c0,8.8,7.2,16,16.2,16c8.9,0,16.2-7.2,16.2-16C168.3,34.2,161,27,152.1,27
		 M152.1,53.4c-5.8,0-10.6-4.7-10.6-10.5c0-5.8,4.7-10.5,10.6-10.5c5.8,0,10.6,4.7,10.6,10.5C162.7,48.8,158,53.4,152.1,53.4"/>
</g>
</svg>
