<svg id="Layer_1" data-name="Layer 1" xmlns="http://www.w3.org/2000/svg" viewBox="0 0 452 592"><title>Vertical-AltFi-Dark</title><path d="M64.94,532.55l10,34.24H54.72ZM56,508.77,26.32,592H46.88l3.2-10.11H79.67L82.88,592h20.91L73.73,508.77Z"/><polygon points="127.08 508.77 127.08 592 169.98 592 169.98 575.36 146.33 575.36 146.33 508.77 127.08 508.77"/><polygon points="180.08 508.77 180.08 525.42 198.85 525.42 198.85 592 218.1 592 218.1 525.42 236.99 525.42 236.99 508.77 180.08 508.77"/><rect x="241.39" y="581.06" width="64.16" height="10.94"/><polygon points="328.01 508.77 328.01 592 347.26 592 347.26 563.23 378.75 563.23 378.75 547.41 347.26 547.41 347.26 524.94 378.75 524.94 378.75 508.77 328.01 508.77"/><rect x="408.22" y="508.77" width="19.49" height="83.23"/><path d="M226,303.71A77.55,77.55,0,1,1,280.8,281,77,77,0,0,1,226,303.71m0-143.18a65.6,65.6,0,1,0,46.37,19.22A65.12,65.12,0,0,0,226,160.53"/><path d="M226,328.13a102,102,0,1,1,72.1-29.84A101.63,101.63,0,0,1,226,328.13m0-192a90,90,0,1,0,63.67,26.34A89.75,89.75,0,0,0,226,136.1"/><path d="M226,352.58a126,126,0,0,1-89.39-37c-49.28-49.31-49.28-129.56,0-178.88a126.47,126.47,0,0,1,178.78,0c49.28,49.32,49.28,129.57,0,178.88a126,126,0,0,1-89.39,37m0-240.94a114.51,114.51,0,1,0,81,33.5,114.12,114.12,0,0,0-81-33.5"/><path d="M226,377A150.79,150.79,0,1,1,332.68,332.9,150.29,150.29,0,0,1,226,377m0-289.92a139.05,139.05,0,0,0-98.25,237.35c54.17,54.21,142.31,54.19,196.5,0A139,139,0,0,0,226,87.12"/><path d="M226,401.51a174.74,174.74,0,0,1-124-51.3C33.67,281.8,33.67,170.49,102,102.1s179.59-68.39,247.94,0,68.35,179.7,0,248.11a174.74,174.74,0,0,1-124,51.3m0-338.79a162.8,162.8,0,0,0-115.54,47.82c-63.71,63.74-63.71,167.47,0,231.23s167.38,63.74,231.08,0,63.71-167.49,0-231.23A162.8,162.8,0,0,0,226,62.72"/><path d="M226,426A199.11,199.11,0,0,1,84.73,367.51C6.85,289.56,6.85,162.74,84.73,84.8a199.68,199.68,0,0,1,282.54,0c77.88,77.94,77.88,204.76,0,282.71A199.11,199.11,0,0,1,226,426m0-387.79A186.58,186.58,0,0,0,93.16,93.23c-73.24,73.29-73.24,192.54,0,265.84s192.43,73.31,265.67,0,73.25-192.55,0-265.84A186.55,186.55,0,0,0,226,38.17"/><rect x="210.24" y="270.81" width="132.69" height="11.93" transform="translate(-114.7 276.51) rotate(-44.98)"/><rect x="210.24" y="270.81" width="132.69" height="11.93" transform="translate(-114.7 276.51) rotate(-44.98)"/><rect x="34.39" y="270.8" width="484.39" height="11.93" transform="translate(-114.69 276.55) rotate(-44.99)"/><rect x="-66.78" y="169.56" width="484.39" height="11.93" transform="translate(-72.74 175.53) rotate(-45.02)"/></svg>