<svg id="Layer_1" data-name="Layer 1" xmlns="http://www.w3.org/2000/svg" viewBox="0 0 760 228"><title>Horizontal-alternativefidelity-Dark</title><path d="M305.35,97l-1.81-5.7H286.85L285,97H273.45L290.2,50h10l16.95,47ZM295.23,63.46l-5.77,19.35h11.4Z"/><polygon points="354.46 87.64 354.46 97.04 330.27 97.04 330.27 50.03 341.13 50.03 341.13 87.64 354.46 87.64"/><polygon points="370.75 59.43 360.16 59.43 360.16 50.03 392.26 50.03 392.26 59.43 381.6 59.43 381.6 97.04 370.75 97.04 370.75 59.43"/><polygon points="416.98 58.76 416.98 69.44 434.74 69.44 434.74 77.97 416.98 77.97 416.98 88.31 434.74 88.31 434.74 97.04 406.13 97.04 406.13 50.03 434.74 50.03 434.74 58.76 416.98 58.76"/><path d="M451.69,50h19.7a16.61,16.61,0,0,1,17.09,17,16.47,16.47,0,0,1-9.31,15.18L488.55,97H476l-8.31-13h-5.09V97H451.69Zm25.8,17c0-4.36-2.95-8.12-7.5-8.12h-7.44V75.15H470c4.55,0,7.5-3.76,7.5-8.13"/><polygon points="532.17 80.66 532.17 50.03 542.96 50.03 542.96 97.04 531.63 97.04 514.75 66.82 514.75 97.04 503.89 97.04 503.89 50.03 515.22 50.03 532.17 80.66"/><path d="M588,97l-1.81-5.7H569.5L567.69,97h-11.6l16.76-47h10l16.95,47ZM577.87,63.46l-5.76,19.35H583.5Z"/><polygon points="616.13 59.43 605.55 59.43 605.55 50.03 637.64 50.03 637.64 59.43 626.99 59.43 626.99 97.04 616.13 97.04 616.13 59.43"/><rect x="651.51" y="50.03" width="10.99" height="47.01"/><polygon points="701.84 97.04 691.85 97.04 675.1 50.03 686.69 50.03 696.88 83.21 707 50.03 718.79 50.03 701.84 97.04"/><polygon points="742.24 58.76 742.24 69.44 760 69.44 760 77.97 742.24 77.97 742.24 88.31 760 88.31 760 97.04 731.39 97.04 731.39 50.03 760 50.03 760 58.76 742.24 58.76"/><polygon points="288.53 139.76 288.53 152.45 306.28 152.45 306.28 161.38 288.53 161.38 288.53 177.64 277.67 177.64 277.67 130.63 306.28 130.63 306.28 139.76 288.53 139.76"/><rect x="322.9" y="130.63" width="10.99" height="47.01"/><path d="M368.47,130.63c15.54,0,24.39,11.48,24.39,23.5s-8.78,23.51-24.39,23.51H351.25v-47ZM362.1,140v28.21h5.83c8.78,0,13.87-6.86,13.87-14.11S376.71,140,367.93,140Z"/><polygon points="418.73 139.36 418.73 150.03 436.48 150.03 436.48 158.56 418.73 158.56 418.73 168.91 436.48 168.91 436.48 177.64 407.87 177.64 407.87 130.63 436.48 130.63 436.48 139.36 418.73 139.36"/><polygon points="477.62 168.24 477.62 177.64 453.44 177.64 453.44 130.63 464.29 130.63 464.29 168.24 477.62 168.24"/><rect x="492.17" y="130.63" width="10.99" height="47.01"/><polygon points="527.61 140.03 517.03 140.03 517.03 130.63 549.12 130.63 549.12 140.03 538.47 140.03 538.47 177.64 527.61 177.64 527.61 140.03"/><polygon points="578.74 177.64 566.75 177.64 575.39 159.97 558.77 130.63 571.44 130.63 581.42 149.09 590 130.63 601.99 130.63 578.74 177.64"/><path d="M113.74,153.1a39.06,39.06,0,1,1,27.58-11.46,38.69,38.69,0,0,1-27.58,11.46m0-72.18a33,33,0,1,0,23.33,9.69,32.77,32.77,0,0,0-23.33-9.69"/><path d="M113.74,165.41a51.41,51.41,0,1,1,36.29-15,51.15,51.15,0,0,1-36.29,15m0-96.8a45.39,45.39,0,1,0,32,13.28,45.13,45.13,0,0,0-32-13.28"/><path d="M113.74,177.74a63.74,63.74,0,1,1,45-18.65,63.38,63.38,0,0,1-45,18.65m0-121.46a57.73,57.73,0,1,0,40.75,16.89,57.39,57.39,0,0,0-40.75-16.89"/><path d="M113.74,190.06A76.11,76.11,0,0,1,60.05,60.19,76,76,0,0,1,167.43,167.82a75.62,75.62,0,0,1-53.69,22.24m0-146.14a70,70,0,1,0,49.45,20.52,69.38,69.38,0,0,0-49.45-20.52"/><path d="M113.74,202.4a88.4,88.4,0,1,1,62.39-25.86,87.85,87.85,0,0,1-62.39,25.86m0-170.78a82.39,82.39,0,1,0,58.15,24.1,81.87,81.87,0,0,0-58.15-24.1"/><path d="M113.74,214.73a100.73,100.73,0,0,1-71.1-172,100.37,100.37,0,0,1,142.19,0,100.73,100.73,0,0,1-71.09,172m0-195.49A93.78,93.78,0,0,0,46.89,47a94.65,94.65,0,1,0,133.7,0,93.78,93.78,0,0,0-66.85-27.76"/><polygon points="117.72 165.3 113.48 161.05 160.68 113.74 164.92 117.99 117.72 165.3"/><polygon points="117.72 165.3 113.48 161.05 160.68 113.74 164.92 117.99 117.72 165.3"/><polygon points="55.16 228 50.91 223.75 223.24 51.03 227.48 55.29 55.16 228"/><polygon points="4.24 176.97 0 172.72 172.32 0 176.57 4.25 4.24 176.97"/></svg>