<svg id="Layer_1" data-name="Layer 1" xmlns="http://www.w3.org/2000/svg" xmlns:xlink="http://www.w3.org/1999/xlink" viewBox="0 0 730 207"><defs><style>.cls-1{fill:none;}.cls-2{clip-path:url(#clip-path);}.cls-3{clip-path:url(#clip-path-2);}.cls-4{opacity:0.3;isolation:isolate;}</style><clipPath id="clip-path"><rect class="cls-1" y="0.11" width="729.67" height="206.56"/></clipPath><clipPath id="clip-path-2"><rect class="cls-1" width="730" height="207"/></clipPath></defs><title>smaller-altfi</title><g class="cls-2"><path d="M277.19,87.84l-1.63-5.15H260.5l-1.63,5.15H248.41l15.12-42.41h9l15.3,42.41Zm-9.13-30.29L262.86,75h10.28Z"/><polygon points="321.52 79.36 321.52 87.83 299.69 87.83 299.69 45.44 309.49 45.44 309.49 79.36 321.52 79.36"/><polygon points="336.21 53.91 326.66 53.91 326.66 45.44 355.62 45.44 355.62 53.91 346.01 53.91 346.01 87.84 336.21 87.84 336.21 53.91"/><polygon points="377.94 53.31 377.94 62.94 393.96 62.94 393.96 70.63 377.94 70.63 377.94 79.96 393.96 79.96 393.96 87.84 368.14 87.84 368.14 45.44 393.96 45.44 393.96 53.31 377.94 53.31"/></g><g class="cls-3"><g class="cls-2"><path d="M409.26,45.43H427a15,15,0,0,1,15.42,15.33,14.85,14.85,0,0,1-8.41,13.69l8.47,13.39H431.15l-7.5-11.76h-4.59V87.84h-9.8Zm23.28,15.33c0-3.94-2.66-7.33-6.77-7.33h-6.71V68.09h6.71c4.11,0,6.77-3.39,6.77-7.33"/><polygon points="481.89 73.06 481.89 45.44 491.62 45.44 491.62 87.84 481.4 87.84 466.16 60.58 466.16 87.84 456.37 87.84 456.37 45.44 466.59 45.44 481.89 73.06"/><path d="M532.26,87.84l-1.64-5.15h-15l-1.63,5.15H503.47l15.12-42.41h9l15.3,42.41Zm-9.13-30.29L517.93,75h10.28Z"/><polygon points="557.65 53.91 548.1 53.91 548.1 45.44 577.07 45.44 577.07 53.91 567.45 53.91 567.45 87.84 557.65 87.84 557.65 53.91"/><rect x="589.58" y="45.43" width="9.92" height="42.4"/><polygon points="635 87.84 625.99 87.84 610.87 45.44 621.33 45.44 630.52 75.36 639.65 45.44 650.29 45.44 635 87.84"/><polygon points="671.46 53.31 671.46 62.94 687.48 62.94 687.48 70.63 671.46 70.63 671.46 79.96 687.48 79.96 687.48 87.84 661.66 87.84 661.66 45.44 687.48 45.44 687.48 53.31 671.46 53.31"/><polygon points="262.02 126.36 262.02 137.81 278.04 137.81 278.04 145.87 262.02 145.87 262.02 160.53 252.22 160.53 252.22 118.13 278.04 118.13 278.04 126.36 262.02 126.36"/><rect x="293.04" y="118.13" width="9.92" height="42.4"/><path d="M334.16,118.13c14,0,22,10.35,22,21.2s-7.92,21.2-22,21.2H318.62v-42.4Zm-5.75,8.48v25.44h5.26c7.92,0,12.52-6.18,12.52-12.72s-4.6-12.72-12.52-12.72Z"/><polygon points="379.51 126 379.51 135.63 395.53 135.63 395.53 143.32 379.51 143.32 379.51 152.65 395.53 152.65 395.53 160.53 369.71 160.53 369.71 118.13 395.53 118.13 395.53 126 379.51 126"/><polygon points="432.66 152.05 432.66 160.53 410.83 160.53 410.83 118.13 420.63 118.13 420.63 152.05 432.66 152.05"/><rect x="445.78" y="118.13" width="9.92" height="42.4"/><polygon points="477.77 126.61 468.22 126.61 468.22 118.13 497.18 118.13 497.18 126.61 487.57 126.61 487.57 160.53 477.77 160.53 477.77 126.61"/><polygon points="523.91 160.53 513.09 160.53 520.89 144.6 505.89 118.13 517.32 118.13 526.33 134.78 534.07 118.13 544.89 118.13 523.91 160.53"/><path d="M104.28,138.39a35.23,35.23,0,1,1,24.89-10.33,34.91,34.91,0,0,1-24.89,10.33m0-65.09A29.81,29.81,0,1,0,125.34,82a29.55,29.55,0,0,0-21.06-8.73"/><path d="M104.28,149.5A46.37,46.37,0,1,1,137,135.93a46.15,46.15,0,0,1-32.75,13.57m0-87.31a40.94,40.94,0,1,0,28.92,12,40.7,40.7,0,0,0-28.92-12"/><path d="M104.28,160.62a57.49,57.49,0,1,1,40.6-16.82,57.18,57.18,0,0,1-40.6,16.82m0-109.55A52.06,52.06,0,1,0,141.05,66.3a51.78,51.78,0,0,0-36.77-15.23"/><path d="M104.28,171.74a68.51,68.51,0,1,1,48.46-20.07,68.26,68.26,0,0,1-48.46,20.07m0-131.82a63.15,63.15,0,1,0,44.63,18.51,62.64,62.64,0,0,0-44.63-18.51"/><path d="M104.28,182.86a79.73,79.73,0,1,1,56.31-23.32,79.33,79.33,0,0,1-56.31,23.32m0-154a74.31,74.31,0,1,0,52.48,21.74,73.88,73.88,0,0,0-52.48-21.74"/><path d="M104.28,194A90.85,90.85,0,0,1,40.13,38.86a90.62,90.62,0,0,1,128.31,0A90.85,90.85,0,0,1,104.28,194m0-176.32A84.71,84.71,0,0,0,44,42.7a85.39,85.39,0,1,0,120.66,0,84.68,84.68,0,0,0-60.33-25"/><polygon points="107.88 149.4 104.05 145.57 146.64 102.89 150.47 106.73 107.88 149.4"/><polygon points="107.88 149.4 104.05 145.57 146.64 102.89 150.47 106.73 107.88 149.4"/><polygon points="51.42 205.95 47.59 202.12 203.1 46.34 206.93 50.17 51.42 205.95"/><polygon points="5.47 159.92 1.64 156.09 157.15 0.31 160.98 4.14 5.47 159.92"/></g></g><g class="cls-3"><g class="cls-2"><g class="cls-4"><g class="cls-3"><g class="cls-3"><path d="M1.64,0H0V207H730V0ZM727.29,158.19h-38.8V47h38.8ZM234.73,39.78,236,44.3H217.75l1.32-4.52Zm-13.21-7.23,5.41-18.15,5.28,18.15ZM685.78,158.19H250V47H685.78Zm13-113.89,1.31-4.52h15.67L717,44.3Zm3.77-11.75,5.41-18.15,5.28,18.15Zm-14,9.12V2.72h14.25Zm-2.71,2.63H250V2.72H685.78Zm-438.54-.06L232.06,2.72h15.18Zm-39.7-2.58V2.72h14.2Zm0,5.35h39.7V158.19h-39.7Zm-2.71,111.18H2.71V47H204.83Zm42.41,45.13L231.89,160.9h15.35Zm-15-12.59H221.52l5.41-18.15Zm-10.3-29.83-14.37,39.84V160.9Zm-14.37,43.39h9.83l1.7-5.43h15.66l1.7,5.43H207.54ZM250,160.9H685.78v43.39H250Zm438.54,0h14.42l-14.42,39.84Zm19.44,11.68,5.28,18.15H702.52Zm5-11.68h14.4v39.88Zm14.4-119.19-14.24-39h14.24ZM204.83,44.3H2.71V2.72H204.83ZM2.71,160.9H204.83v43.39H2.71Zm685.78,43.39h9.88l1.69-5.43h15.67l1.69,5.43H688.49Z"/></g></g></g></g></g></svg>