<svg xmlns="http://www.w3.org/2000/svg" xmlns:xlink="http://www.w3.org/1999/xlink" viewBox="0 0 364.16 480"><defs><style>.cls-1,.cls-11,.cls-2,.cls-6,.cls-8{fill:none;}.cls-11,.cls-2,.cls-6,.cls-8{stroke:#000;stroke-miterlimit:10;}.cls-2{stroke-width:4px;}.cls-3{opacity:0.3;}.cls-3,.cls-7{isolation:isolate;}.cls-4{clip-path:url(#clip-path);}.cls-5{clip-path:url(#clip-path-2);}.cls-6,.cls-8{stroke-width:2.72px;}.cls-7{opacity:0.15;}.cls-8{opacity:0.5;}.cls-9{clip-path:url(#clip-path-3);}.cls-10{clip-path:url(#clip-path-4);}.cls-11{stroke-width:1.02px;}.cls-12{clip-path:url(#clip-path-5);}.cls-13{clip-path:url(#clip-path-6);}</style><clipPath id="clip-path"><rect class="cls-1" x="19.17" width="327" height="480"/></clipPath><clipPath id="clip-path-2"><rect class="cls-1" x="20" width="325.86" height="480"/></clipPath><clipPath id="clip-path-3"><rect class="cls-1" x="20.17" y="344" width="325" height="69"/></clipPath><clipPath id="clip-path-4"><rect class="cls-2" x="20.85" y="344.7" width="324.15" height="67.57"/></clipPath><clipPath id="clip-path-5"><rect class="cls-1" x="145.17" y="344" width="63" height="68"/></clipPath><clipPath id="clip-path-6"><rect class="cls-1" x="145.18" y="344.87" width="62.39" height="66.89"/></clipPath></defs><title>vertical-altfi-example</title><g id="Layer_2" data-name="Layer 2"><g id="Layer_1-2" data-name="Layer 1"><path d="M66.91,478.64l-2.59-8.12H40.5l-2.59,8.12H21.36l23.92-66.88H59.54l24.21,66.88ZM52.46,430.87l-8.23,27.52H60.5Z"/><polygon points="137.05 465.26 137.05 478.64 102.51 478.64 102.51 411.76 118.01 411.76 118.01 465.26 137.05 465.26"/><polygon points="160.3 425.13 145.18 425.13 145.18 411.76 191.02 411.76 191.02 425.13 175.8 425.13 175.8 478.64 160.3 478.64 160.3 425.13"/><rect x="194.56" y="469.85" width="51.67" height="8.79"/><polygon points="279.82 424.75 279.82 442.81 305.18 442.81 305.18 455.52 279.82 455.52 279.82 478.64 264.32 478.64 264.32 411.76 305.18 411.76 305.18 424.75 279.82 424.75"/><rect x="328.91" y="411.76" width="15.69" height="66.89"/><path d="M182.17,247a62.39,62.39,0,1,1,44.12-18.26A62,62,0,0,1,182.17,247m0-115.06a52.78,52.78,0,1,0,37.33,15.44,52.48,52.48,0,0,0-37.33-15.44"/><path d="M182.17,266.58a82,82,0,1,1,58.06-24,82,82,0,0,1-58.06,24m0-154.33a72.37,72.37,0,1,0,51.27,21.17,72.38,72.38,0,0,0-51.27-21.17"/><path d="M182.17,286.23a101.61,101.61,0,1,1,72-29.73,101.57,101.57,0,0,1-72,29.73m0-193.63a92,92,0,1,0,65.19,26.92A92,92,0,0,0,182.17,92.6"/><path d="M182.17,305.89a121.29,121.29,0,1,1,85.91-35.47,121.22,121.22,0,0,1-85.91,35.47m0-233A111.71,111.71,0,0,0,103,263.64c43.62,43.57,114.61,43.55,158.25,0A111.74,111.74,0,0,0,182.17,72.89"/><path d="M182.17,325.55a140.87,140.87,0,0,1-99.84-41.23c-55-55-55-144.43,0-199.39S227,30,282,84.93s55.05,144.42,0,199.39a140.87,140.87,0,0,1-99.83,41.23m0-272.27a131.35,131.35,0,0,0-93,224.26c51.3,51.23,134.79,51.23,186.09,0a131.35,131.35,0,0,0-93-224.26"/><path d="M182.17,345.2a160.5,160.5,0,0,1-113.77-47C5.68,235.58,5.68,133.66,68.4,71a161,161,0,0,1,227.53,0c62.72,62.64,62.72,164.56,0,227.21a160.49,160.49,0,0,1-113.76,47m0-311.65a150.41,150.41,0,0,0-107,44.25c-59,58.9-59,154.74,0,213.65s155,58.91,214,0,59-154.75,0-213.65a150.4,150.4,0,0,0-107-44.25"/><polygon points="188.53 266.41 181.74 259.63 257.28 184.2 264.06 190.98 188.53 266.41"/><polygon points="188.53 266.41 181.74 259.63 257.28 184.2 264.06 190.98 188.53 266.41"/><polygon points="81.63 359.59 88.42 366.37 364.17 91.02 357.38 84.24 81.63 359.59"/><polygon points="0.17 278.23 6.96 285 282.7 9.65 275.91 2.87 0.17 278.23"/><g class="cls-3"><g class="cls-4"><g class="cls-5"><rect class="cls-6" x="21.36" y="1.36" width="323.14" height="477.28"/></g></g></g><g class="cls-7"><polygon class="cls-8" points="362.6 478.64 1.36 478.64 2.71 1.36 362.6 1.36 362.6 478.64"/></g><g class="cls-3"><g class="cls-9"><g class="cls-10"><rect class="cls-11" x="21.36" y="345.21" width="323.14" height="66.55"/></g><rect class="cls-2" x="20.85" y="344.7" width="324.15" height="67.57"/></g></g><g class="cls-3"><g class="cls-12"><g class="cls-13"><path d="M190.73,411.76l-2.58-8.13H164.32l-2.58,8.13H145.18l23.93-66.89h14.25l24.21,66.89ZM176.28,364l-8.23,27.52h16.27Z"/></g></g></g></g></g></svg>