<svg id="Layer_1" data-name="Layer 1" xmlns="http://www.w3.org/2000/svg" viewBox="0 0 638.91 645.58"><title>Small-AltFi-Dark</title><path d="M321.17,61c143.46,0,260.17,116.71,260.17,260.16S464.63,581.34,321.17,581.34,61,464.63,61,321.17,177.72,61,321.17,61m0-26.68c-158.42,0-286.84,128.42-286.84,286.84S162.75,608,321.17,608,608,479.6,608,321.17,479.6,34.33,321.17,34.33Z"/><path d="M321.17,118.82c111.58,0,202.35,90.78,202.35,202.35S432.75,523.52,321.17,523.52,118.82,432.75,118.82,321.17,209.6,118.82,321.17,118.82m0-26.68c-126.49,0-229,102.54-229,229s102.54,229,229,229,229-102.54,229-229-102.54-229-229-229Z"/><path d="M321.17,176.64c79.7,0,144.54,64.84,144.54,144.53S400.87,465.71,321.17,465.71,176.64,400.87,176.64,321.17s64.84-144.53,144.53-144.53m0-26.68A171.22,171.22,0,1,0,492.39,321.17,171.21,171.21,0,0,0,321.17,150Z"/><path d="M321.17,234.45a86.72,86.72,0,1,1-86.72,86.72,86.82,86.82,0,0,1,86.72-86.72m0-26.68a113.41,113.41,0,1,0,113.41,113.4,113.4,113.4,0,0,0-113.41-113.4Z"/><rect x="-91.41" y="237.5" width="681.61" height="23.78" transform="translate(-103.3 249.39) rotate(-45)"/><rect x="48.77" y="384.42" width="681.61" height="23.64" transform="translate(-166.08 391.52) rotate(-45)"/></svg>