<?xml version="1.0" encoding="utf-8"?>
<!-- Generator: Adobe Illustrator 20.1.0, SVG Export Plug-In . SVG Version: 6.00 Build 0)  -->
<svg version="1.1" id="Layer_1" xmlns="http://www.w3.org/2000/svg" xmlns:xlink="http://www.w3.org/1999/xlink" x="0px" y="0px"
	 viewBox="0 0 411.2 252.4" style="enable-background:new 0 0 411.2 252.4;" xml:space="preserve">
<style type="text/css">
	.st0{fill:#010101;}
	.st1{fill:#221F1F;}
</style>
<g>
	<g>
		<polygon class="st0" points="401.4,146 387.4,146 387.4,26.5 344.1,26.5 344.1,12.5 401.4,12.5 		"/>
	</g>
	<path class="st1" d="M74.2,188.3l-10.3,7.3c-4.5-7.1-10.7-11.2-19.1-11.2c-12.4,0-21.5,9.1-21.5,22.1c0,12.8,9.1,21.9,21.5,21.9
		c8.4,0,14.7-4.1,19.1-11.2l10.3,7.3c-5.8,10.2-16.6,16.6-29.5,16.6c-19.8,0-35.5-15-35.5-34.6s15.7-34.6,35.6-34.6
		C57.6,171.7,68.3,178.1,74.2,188.3z"/>
	<path class="st1" d="M162.9,206.3c0,19.6-16,34.6-35.6,34.6s-35.4-15-35.4-34.6s15.8-34.6,35.4-34.6S162.9,186.7,162.9,206.3z
		 M105.9,206.3c0,12.9,9,21.9,21.4,21.9c12.2,0,21.4-9,21.4-21.9c0-12.8-9.2-22-21.4-22C114.9,184.4,105.9,193.5,105.9,206.3z"/>
	<path class="st1" d="M316.8,231h-26.6l-3.6,8.5h-14.3l29.1-66.3h4.4l29,66.3h-14.3L316.8,231z M303.5,198.1l-8.6,21.9H312
		L303.5,198.1z"/>
	<path class="st1" d="M402.4,220c0,11.5-8.9,19.5-21.8,19.5h-22.9h-6.6v-66.3h13.1h10.4c12.3,0,21,7.5,21,18.5c0,4.9-1.8,8.9-4.9,12
		C398,206.2,402.4,212,402.4,220z M364.1,184.8V200h9.3c5.6,0,8.6-3.1,8.6-7.6c0-4.6-3-7.5-8.6-7.5H364.1z M389,219.5
		c0-5.1-3.5-8.3-9.4-8.3h-15.5v16.7h15.5C385.5,227.8,389,224.7,389,219.5z"/>
	<g>
		<polygon class="st0" points="256.9,239.5 180.6,239.5 180.6,106.9 194.6,106.9 194.6,225.5 256.9,225.5 		"/>
	</g>
	<polygon class="st0" points="202.2,17 202.2,13.2 193.3,13.2 189.5,13.2 180.6,13.2 180.6,17 189.4,17 189.4,31 180.6,31 
		180.6,34.8 189.5,34.8 193.3,34.8 202.2,34.8 202.2,31 193.3,31 193.3,17 	"/>
	<polygon class="st0" points="256,17 256,13.2 250.3,13.2 234.3,13.2 234.3,17 234.3,31 234.3,34.8 250.4,34.8 256,34.8 256,31 
		238.2,31 238.2,25.9 252.1,25.9 252.1,22.1 238.2,22.1 238.2,17 	"/>
	<path class="st0" d="M218.4,13.2L218.4,13.2l-0.4,0h-0.7h-2.1h-3.9h-3.5v2.2v16.4v3h3.2h4.1h2.1h0.7h0.2
		c6.7-0.1,11.3-4.8,11.3-10.8C229.5,18,225,13.4,218.4,13.2 M218.2,31L218.2,31l-6.2,0v0h-0.2h0V16.9h0v0h0.4h6.2
		c4.3,0.1,7,3.1,7,7.1C225.3,28.1,222.5,31,218.2,31"/>
	<path class="st0" d="M271.4,12.2c-6.6,0-11.9,5.3-11.9,11.7c0,6.5,5.3,11.7,11.9,11.7c6.6,0,11.9-5.3,11.9-11.7
		C283.2,17.5,277.9,12.2,271.4,12.2 M271.4,31.7c-4.3,0-7.8-3.4-7.8-7.7c0-4.2,3.5-7.7,7.8-7.7c4.3,0,7.8,3.4,7.8,7.7
		C279.1,28.2,275.6,31.7,271.4,31.7"/>
</g>
</svg>
