<svg width="172" height="172" viewBox="0 0 172 172" fill="none" xmlns="http://www.w3.org/2000/svg">
<g clip-path="url(#clip0)">
<path d="M91.1 171.5C46.8 171.5 10.7 135.4 10.7 91.1002C10.7 46.8002 46.8 10.7002 91.1 10.7002C135.4 10.7002 171.5 46.8002 171.5 91.1002C171.5 135.4 135.4 171.5 91.1 171.5ZM91.1 11.7002C47.3 11.7002 11.7 47.3002 11.7 91.1002C11.7 134.9 47.3 170.5 91.1 170.5C134.9 170.5 170.5 134.9 170.5 91.1002C170.5 47.3002 134.9 11.7002 91.1 11.7002Z" fill="#060606"/>
<path d="M86.6001 169.7C45.1001 169.7 10.1001 134.7 10.1001 93.2C10.1001 73.4 19.6001 52.5 36.1001 36C52.6001 19.5 73.4001 10 93.3001 10C134.8 10 169.8 45 169.8 86.5C169.8 106.3 160.3 127.2 143.8 143.7C127.2 160.2 106.4 169.7 86.6001 169.7ZM93.2001 11.1C73.6001 11.1 53.0001 20.5 36.7001 36.8C20.4001 53 11.1001 73.6 11.1001 93.2C11.1001 134.1 45.7001 168.7 86.6001 168.7C106.2 168.7 126.8 159.3 143.1 143C159.4 126.7 168.8 106.1 168.8 86.5C168.7 45.6 134.1 11.1 93.2001 11.1Z" fill="#060606"/>
<path d="M81.9999 167.9C63.4999 167.9 44.8999 160 31.0999 146.2C17.2999 132.4 9.3999 113.8 9.3999 95.2999C9.3999 76.9999 19.9999 55.4999 37.7999 37.7999C55.4999 19.9999 77.0999 9.3999 95.2999 9.3999C113.8 9.3999 132.4 17.2999 146.2 31.0999C160 44.8999 167.9 63.4999 167.9 81.9999C167.9 100.3 157.3 121.8 139.5 139.5C121.8 157.3 100.3 167.9 81.9999 167.9ZM95.2999 10.3999C77.2999 10.3999 56.0999 20.8999 38.4999 38.4999C20.8999 56.0999 10.3999 77.2999 10.3999 95.2999C10.3999 133.4 43.8999 166.9 81.9999 166.9C99.9999 166.9 121.2 156.4 138.8 138.8C156.4 121.2 166.9 99.9999 166.9 81.9999C166.9 43.8999 133.5 10.3999 95.2999 10.3999Z" fill="#060606"/>
<path d="M77.5 166.1C41.5 166.1 8.80005 133.3 8.80005 97.4002C8.80005 80.7002 20.6 58.5002 39.6 39.5002C58.6 20.5002 80.8 8.7002 97.5 8.7002C133.5 8.7002 166.2 41.5002 166.2 77.4002C166.2 94.1002 154.4 116.3 135.4 135.3C116.4 154.3 94.2 166.1 77.5 166.1ZM97.4 9.7002C81 9.7002 59.1001 21.4002 40.2001 40.2002C21.4001 59.1002 9.70005 81.0002 9.70005 97.4002C9.70005 132.8 42 165.1 77.4 165.1C93.9 165.1 115.8 153.4 134.6 134.6C153.4 115.8 165.1 93.9002 165.1 77.4002C165.1 42.0002 132.9 9.7002 97.4 9.7002Z" fill="#060606"/>
<path d="M72.9001 164.4C39.6001 164.4 8.1001 132.9 8.1001 99.6002C8.1001 66.3002 66.2001 8.2002 99.5001 8.2002C132.8 8.2002 164.3 39.7002 164.3 73.0002C164.4 106.2 106.2 164.4 72.9001 164.4ZM99.5001 9.1002C66.5001 9.1002 9.1001 66.6002 9.1001 99.5002C9.1001 132.3 40.1001 163.3 72.9001 163.3C105.9 163.3 163.3 105.8 163.3 72.9002C163.4 40.1002 132.3 9.1002 99.5001 9.1002Z" fill="#060606"/>
<path d="M68.4001 162.6C37.6001 162.6 7.50006 132.4 7.50006 101.7C7.40006 90.4999 16.8001 69.2999 43.0001 42.9999C69.3001 16.7999 90.5001 7.3999 101.6 7.3999C132.4 7.3999 162.5 37.5999 162.5 68.2999C162.5 79.3999 153.1 100.6 126.9 126.9C100.7 153.2 79.5001 162.6 68.4001 162.6ZM101.6 8.3999C87.9001 8.3999 65.2001 22.2999 43.7001 43.6999C22.2001 65.0999 8.40006 87.8999 8.40006 101.6C8.40006 115.9 15.2001 131 27.1001 142.8C39.0001 154.8 54.0001 161.6 68.4001 161.6C82.1001 161.6 104.8 147.7 126.3 126.3C147.8 104.9 161.6 82.0999 161.6 68.3999C161.6 54.0999 154.8 38.9999 142.9 27.1999C131 15.1999 116 8.3999 101.6 8.3999Z" fill="#060606"/>
<path d="M63.7999 160.8C36.0999 160.8 6.69995 131.5 6.69995 103.7C6.69995 88.2998 27.2 62.2998 44.7 44.7998C62.2 27.2998 88.2 6.7998 103.6 6.7998C131.3 6.7998 160.7 36.0998 160.7 63.8998C160.7 79.2998 140.2 105.3 122.7 122.8C105.2 140.3 79.2 160.8 63.7999 160.8ZM103.7 7.7998C91.2999 7.7998 68.3999 22.5998 45.5 45.4998C22.6 68.3998 7.79995 91.2998 7.79995 103.7C7.79995 130.9 36.6 159.8 63.9 159.8C76.2999 159.8 99.2 145 122.1 122.1C145 99.1998 159.8 76.2998 159.8 63.8998C159.8 36.5998 131 7.7998 103.7 7.7998Z" fill="#060606"/>
<path d="M59.3001 159C47.5001 159 34.1001 152.6 23.3001 141.8C12.5001 131 6.1001 117.6 6.1001 105.8C6.1001 80.6001 80.7001 6.1001 105.8 6.1001C117.6 6.1001 131 12.5001 141.8 23.3001C152.6 34.0001 159 47.5001 159 59.3001C159 84.4001 84.4001 159 59.3001 159ZM105.8 7.1001C96.6001 7.1001 75.0001 19.5001 47.2001 47.3001C19.5001 75.0001 7.1001 96.7001 7.1001 105.8C7.1001 130.2 34.9001 158 59.3001 158C68.5001 158 90.1001 145.6 117.9 117.8C145.6 90.1001 158 68.4001 158 59.3001C158 34.9001 130.2 7.1001 105.8 7.1001Z" fill="#060606"/>
<path d="M54.6999 157.2C44.1999 157.2 31.8999 151.1 21.6999 140.9C11.4999 130.7 5.3999 118.4 5.3999 107.9C5.3999 100.2 16.5999 79.9 48.2999 48.3C79.9999 16.7 100.2 5.5 107.9 5.5C118.4 5.5 130.7 11.6 140.9 21.8C151.1 32 157.2 44.3 157.2 54.8C157.2 62.5 146 82.8 114.3 114.4C82.5999 146 62.4999 157.2 54.6999 157.2ZM107.9 6.5C86.0999 6.5 6.4999 86.1 6.4999 107.9C6.4999 129.6 33.0999 156.2 54.7999 156.2C76.5999 156.2 156.3 76.5 156.3 54.7C156.2 33.1 129.6 6.5 107.9 6.5Z" fill="#060606"/>
<path d="M50.2001 155.4C30.7001 155.4 4.80005 129.5 4.80005 110C4.80005 90.3998 90.4 4.7998 110.1 4.7998C129.6 4.7998 155.5 30.6998 155.5 50.1998C155.4 69.8998 69.9001 155.4 50.2001 155.4ZM110.1 5.7998C103 5.7998 81.9 19.6998 50.8 50.7998C19.7 81.8998 5.80005 103 5.80005 110.1C5.80005 129.2 31.1 154.5 50.2001 154.5C57.3 154.5 78.4 140.6 109.5 109.5C140.6 78.3998 154.5 57.2998 154.5 50.1998C154.4 31.0998 129.1 5.7998 110.1 5.7998Z" fill="#060606"/>
<path d="M45.6001 153.7C28.9001 153.7 4.1001 128.9 4.1001 112.2C4.1001 103.5 28.1001 75.6002 51.8001 51.9002C75.5001 28.2002 103.4 4.2002 112.1 4.2002C128.8 4.2002 153.6 29.0002 153.6 45.7002C153.6 54.4002 129.6 82.3002 105.9 106C82.2001 129.7 54.4001 153.7 45.6001 153.7ZM112.2 5.1002C105 5.1002 80.5001 24.6002 52.6001 52.5002C24.6001 80.5002 5.1001 105 5.1001 112.2C5.1001 128.5 29.3001 152.7 45.6001 152.7C52.8001 152.7 77.3001 133.2 105.2 105.3C133.1 77.4002 152.6 52.9002 152.6 45.7002C152.7 29.4002 128.4 5.1002 112.2 5.1002Z" fill="#060606"/>
<path d="M41.1 151.9C27 151.9 3.5 128.4 3.5 114.3C3.5 107 28.7 78.6 53.6 53.6C78.5 28.6 107 3.5 114.3 3.5C128.4 3.5 151.9 27 151.9 41.1C151.9 48.4 126.7 76.8 101.8 101.8C76.9 126.8 48.4 151.9 41.1 151.9ZM114.3 4.5C100.9 4.5 4.5 100.9 4.5 114.3C4.5 127.6 27.8 150.9 41.1 150.9C54.4 150.9 150.9 54.5 150.9 41.1C150.9 27.8 127.6 4.5 114.3 4.5Z" fill="#060606"/>
<path d="M36.5999 150.1C25.2999 150.1 2.8999 127.7 2.8999 116.4C2.8999 110.5 29.2999 81.4999 55.3999 55.3999C81.4999 29.2999 110.5 2.8999 116.4 2.8999C127.7 2.8999 150.1 25.2999 150.1 36.5999C150.1 42.4999 123.7 71.4999 97.5999 97.5999C71.3999 123.7 42.3999 150.1 36.5999 150.1ZM116.4 3.7999C111.7 3.7999 86.8999 25.2999 56.0999 55.9999C25.2999 86.7999 3.7999 111.6 3.7999 116.4C3.7999 127.1 25.7999 149.1 36.4999 149.1C41.1999 149.1 65.9999 127.6 96.7999 96.8999C127.6 66.0999 149 41.2999 149 36.5999C149.1 25.7999 127.1 3.7999 116.4 3.7999Z" fill="#060606"/>
<path d="M32 148.3C23.4 148.3 2.19995 127.1 2.19995 118.5C2.19995 109.8 109.8 2.2002 118.5 2.2002C127.1 2.2002 148.3 23.4002 148.3 32.0002C148.3 40.7002 40.7 148.3 32 148.3ZM118.5 3.2002C115 3.2002 89.5 26.2002 57.9 57.8002C26.2 89.5002 3.19995 115 3.19995 118.5C3.19995 126.6 23.9 147.3 32 147.3C35.5 147.3 61 124.3 92.6 92.7002C124.3 61.0002 147.3 35.5002 147.3 32.0002C147.3 23.9002 126.6 3.2002 118.5 3.2002Z" fill="#060606"/>
<path d="M27.5001 146.5C21.7001 146.5 1.6001 126.4 1.6001 120.6C1.6001 116.4 53.1001 64.8 59.0001 58.9C64.9001 53 116.5 1.5 120.7 1.5C126.5 1.5 146.6 21.6 146.6 27.4C146.6 31.6 95.1001 83.2 89.2001 89.1C83.3001 95 31.7001 146.5 27.5001 146.5ZM120.6 2.5C118.2 2.7 92.5001 26.7 59.6001 59.6C26.7001 92.5 2.7001 118.1 2.5001 120.6C2.5001 125.7 22.3001 145.5 27.4001 145.5C29.9001 145.3 55.5001 121.3 88.4001 88.4C121.3 55.5 145.3 29.9 145.5 27.4C145.5 22.3 125.7 2.5 120.6 2.5Z" fill="#060606"/>
<path d="M22.8999 144.7C19.7999 144.7 0.899902 125.7 0.899902 122.7C0.899902 120.6 46.6999 74.6999 60.6999 60.6999C74.6999 46.6999 120.6 0.899902 122.7 0.899902C125.8 0.899902 144.7 19.8999 144.7 22.8999C144.7 24.9999 98.8999 70.8999 84.8999 84.8999C70.8999 98.9999 24.9999 144.7 22.8999 144.7ZM1.8999 122.7C2.1999 125.5 20.0999 143.4 22.8999 143.7C27.5999 141.4 141.5 27.5999 143.8 22.7999C143.5 19.9999 125.6 2.0999 122.8 1.7999C118 4.0999 4.0999 118 1.8999 122.7Z" fill="#060606"/>
<path d="M18.4 143.2L0 124.8L124.8 0L143.2 18.4L18.4 143.2ZM1.4 124.8L18.4 141.8L141.7 18.4L124.7 1.4L1.4 124.8Z" fill="#060606"/>
</g>
<defs>
<clipPath id="clip0">
<rect width="171.5" height="171.5" fill="white"/>
</clipPath>
</defs>
</svg>
