<svg width="146" height="146" viewBox="0 0 146 146" fill="none" xmlns="http://www.w3.org/2000/svg">
<path d="M83.4451 144.702C117.276 144.702 144.702 117.276 144.702 83.4451C144.702 49.6141 117.276 22.1886 83.4451 22.1886C49.6141 22.1886 22.1886 49.6141 22.1886 83.4451C22.1886 117.276 49.6141 144.702 83.4451 144.702Z" stroke="#050505" stroke-width="2" stroke-miterlimit="10"/>
<path d="M72.6078 143.12C44.4156 143.12 18.7948 117.499 18.7948 89.3073C18.7948 61.1152 61.1021 18.8076 89.2942 18.8076C117.486 18.8076 143.108 44.4286 143.108 72.6207C143.108 100.813 100.8 143.12 72.6078 143.12Z" stroke="#050505" stroke-width="2" stroke-miterlimit="10"/>
<path d="M61.771 141.513C39.2095 141.513 15.3882 117.692 15.3882 95.1307C15.3882 72.5692 72.5823 15.4265 95.0923 15.4265C117.602 15.4265 141.475 39.2479 141.475 61.8093C141.475 84.3707 84.3324 141.513 61.771 141.513Z" stroke="#050505" stroke-width="2" stroke-miterlimit="10"/>
<path d="M50.9335 139.919C34.0157 139.919 11.9941 117.898 11.9941 100.98C11.9941 84.0622 84.0624 11.9943 100.98 11.9943C117.898 11.9943 139.984 33.9642 139.984 50.9335C139.984 67.9028 67.8514 139.919 50.9335 139.919Z" stroke="#050505" stroke-width="2" stroke-miterlimit="10"/>
<path d="M40.0961 138.325C28.8218 138.325 8.6001 118.104 8.6001 106.829C8.6001 95.555 95.5549 8.60034 106.829 8.60034C118.103 8.60034 138.325 28.8221 138.325 40.0963C138.325 51.3706 51.3832 138.325 40.0961 138.325Z" stroke="#050505" stroke-width="2" stroke-miterlimit="10"/>
<path d="M29.2593 136.731C23.6157 136.731 5.20667 118.322 5.20667 112.679C5.20667 107.035 107.035 5.20654 112.678 5.20654C118.322 5.20654 136.731 23.6156 136.731 29.2591C136.731 34.9027 34.9028 136.731 29.2593 136.731Z" stroke="#050505" stroke-width="2" stroke-miterlimit="10"/>
<path d="M135.139 18.427L118.532 1.81958L1.8136 118.538L18.421 135.145L135.139 18.427Z" stroke="#050505" stroke-width="2" stroke-miterlimit="10"/>
</svg>
