<svg width="163" height="163" viewBox="0 0 163 163" fill="none" xmlns="http://www.w3.org/2000/svg">
<g clip-path="url(#clip0)">
<path d="M81.3 162.7C36.5 162.7 0 126.2 0 81.3C0 36.4 36.5 0 81.3 0C126.2 0 162.6 36.5 162.6 81.3C162.6 126.1 126.2 162.7 81.3 162.7ZM81.3 1C37 1 1 37 1 81.3C1 125.6 37 161.6 81.3 161.6C125.6 161.6 161.6 125.6 161.6 81.3C161.6 37 125.6 1 81.3 1Z" fill="#060606"/>
<path d="M84.2001 160.5C40.5001 160.5 2.1001 124.8 2.1001 84.2001C2.1001 40.5001 37.8001 2.1001 78.4001 2.1001C122.1 2.1001 160.5 37.8001 160.5 78.4001C160.5 122.2 124.9 160.5 84.2001 160.5ZM78.5001 3.2001C38.3001 3.2001 3.2001 41.0001 3.2001 84.2001C3.2001 124.3 41.1001 159.5 84.3001 159.5C124.4 159.5 159.6 121.6 159.6 78.4001C159.5 38.3001 121.6 3.2001 78.5001 3.2001Z" fill="#060606"/>
<path d="M87.1 158.4C48.8 158.4 4.30005 127.3 4.30005 87.1999C4.30005 48.8999 35.4 4.3999 75.5 4.3999C113.8 4.3999 158.3 35.4999 158.3 75.5999C158.4 113.9 127.3 158.4 87.1 158.4ZM75.6 5.2999C36 5.2999 5.30005 49.2999 5.30005 87.0999C5.30005 126.7 49.3 157.3 87.1 157.3C126.7 157.3 157.3 113.3 157.3 75.4999C157.4 35.9999 113.4 5.2999 75.6 5.2999Z" fill="#060606"/>
<path d="M89.9999 156.2C52.3999 156.2 6.3999 125.7 6.3999 90C6.4999 52.4 36.9999 6.5 72.6999 6.5C110.3 6.5 156.3 37 156.3 72.7C156.2 110.3 125.7 156.2 89.9999 156.2ZM72.6999 7.5C37.5999 7.5 7.4999 52.9 7.4999 90C7.4999 125.1 52.8999 155.2 90.0999 155.2C125.2 155.2 155.3 109.8 155.3 72.6C155.2 37.6 109.8 7.5 72.6999 7.5Z" fill="#060606"/>
<path d="M92.9001 154.1C76.0001 154.1 55.0001 147.3 38.2001 136.3C19.1001 123.7 8.6001 108.4 8.6001 92.9001C8.6001 76.0001 15.5001 55.0001 26.5001 38.2001C39.0001 19.1001 54.3001 8.6001 69.8001 8.6001C86.7001 8.6001 107.7 15.4001 124.5 26.4001C143.6 38.9001 154.1 54.3001 154.1 69.7001C154.1 86.6001 147.3 107.6 136.3 124.4C123.7 143.6 108.4 154.1 92.9001 154.1ZM69.8001 9.6001C36.6001 9.6001 9.6001 60.0001 9.6001 92.9001C9.6001 126.1 60.0001 153 92.9001 153C126.1 153 153 102.6 153 69.7001C153.1 36.6001 102.7 9.6001 69.8001 9.6001Z" fill="#060606"/>
<path d="M95.8 151.9C80.1001 151.9 58.8 145.5 41.8 135.6C14.8 119.9 10.8 104 10.8 95.8999C10.8 80.1999 17.2 58.8999 27.1 41.8999C42.8 14.8999 58.7001 10.8999 66.8001 10.8999C82.5001 10.8999 103.8 17.2999 120.8 27.1999C147.8 42.8999 151.8 58.7999 151.8 66.8999C151.8 82.5999 145.4 103.9 135.5 120.9C119.9 147.9 103.9 151.9 95.8 151.9ZM66.9001 11.7999C59 11.7999 43.5 15.7999 28 42.2999C18.2 59.1999 11.8 80.1999 11.8 95.7999C11.8 103.7 15.8 119.2 42.3 134.7C59.2001 144.5 80.2001 150.9 95.8 150.9C103.7 150.9 119.2 146.9 134.7 120.4C144.5 103.5 150.9 82.4999 150.9 66.8999C150.9 58.9999 146.9 43.4999 120.4 27.9999C103.5 18.1999 82.5001 11.7999 66.9001 11.7999Z" fill="#060606"/>
<path d="M98.6999 149.7C69.6999 149.7 12.8999 126.6 12.8999 98.7C12.9999 69.7 36.0999 13 63.9999 13C92.9999 13 149.8 36.1 149.8 64C149.7 93 126.6 149.7 98.6999 149.7ZM63.9999 14C47.4999 14 34.7999 34 28.6999 45.9C19.8999 63 13.9999 84.3 13.9999 98.7C13.9999 115.2 33.9999 127.9 45.8999 134C63.0999 142.8 84.2999 148.7 98.7999 148.7C115.3 148.7 128 128.7 134.1 116.8C142.9 99.6 148.8 78.4 148.8 63.9C148.8 47.4 128.8 34.7 116.9 28.6C99.6999 19.9 78.3999 14 63.9999 14Z" fill="#060606"/>
<path d="M101.6 147.6C88.2001 147.6 66.5001 142.1 49.0001 134.2C36.3001 128.5 15.1001 116.8 15.1001 101.6C15.1001 88.2001 20.6001 66.5001 28.5001 49.0001C34.2001 36.3001 45.9001 15.1001 61.1001 15.1001C74.5001 15.1001 96.2001 20.6001 113.7 28.5001C126.4 34.2001 147.6 45.9001 147.6 61.1001C147.6 74.5001 142.1 96.2001 134.2 113.7C128.5 126.4 116.8 147.6 101.6 147.6ZM61.1001 16.1001C36.1001 16.1001 16.1001 77.5001 16.1001 101.6C16.1001 126.6 77.5001 146.6 101.6 146.6C126.6 146.6 146.6 85.2001 146.6 61.1001C146.6 36.1001 85.2001 16.1001 61.1001 16.1001Z" fill="#060606"/>
<path d="M104.5 145.4C80.6 145.4 17.3 126.8 17.3 104.5C17.3 80.5998 35.9001 17.2998 58.2001 17.2998C82.1001 17.2998 145.4 35.8998 145.4 58.1998C145.4 82.0998 126.8 145.4 104.5 145.4ZM58.2001 18.2998C45.4001 18.2998 35.1 39.9998 30.1 52.9998C22.4001 72.7998 18.3 94.2998 18.3 104.6C18.3 117.4 40 127.7 53 132.7C72.8 140.4 94.3 144.5 104.6 144.5C117.4 144.5 127.7 122.8 132.7 109.8C140.4 89.9998 144.5 68.4998 144.5 58.1998C144.5 45.3998 122.8 35.0998 109.8 30.0998C89.9 22.3998 68.4001 18.2998 58.2001 18.2998Z" fill="#060606"/>
<path d="M107.4 143.3C97.6999 143.3 75.8999 139.4 56.1999 132.9C42.4999 128.4 19.3999 119.1 19.3999 107.4C19.3999 97.6999 23.2999 75.8999 29.7999 56.1999C34.2999 42.4999 43.5999 19.3999 55.2999 19.3999C64.9999 19.3999 86.7999 23.2999 106.5 29.7999C120.2 34.2999 143.3 43.5999 143.3 55.2999C143.3 64.9999 139.4 86.7999 132.9 106.5C128.4 120.2 119 143.3 107.4 143.3ZM55.2999 20.3999C36.4999 20.3999 20.3999 86.6999 20.3999 107.4C20.3999 126.2 86.6999 142.3 107.4 142.3C126.2 142.3 142.3 75.9999 142.3 55.2999C142.3 36.4999 75.9999 20.3999 55.2999 20.3999Z" fill="#060606"/>
<path d="M110.3 141.1C101.5 141.1 79.1001 137.5 59.8001 132.2C42.4001 127.4 21.6001 119.7 21.6001 110.3C21.6001 101.5 25.2001 79.1001 30.5001 59.8001C35.3001 42.4001 43.0001 21.6001 52.4001 21.6001C61.2001 21.6001 83.6001 25.2001 102.9 30.5001C120.3 35.3001 141.1 43.0001 141.1 52.4001C141.1 61.2001 137.5 83.6001 132.2 102.9C127.4 120.3 119.7 141.1 110.3 141.1ZM52.4001 22.6001C36.3001 22.6001 22.6001 93.6001 22.6001 110.3C22.6001 126.4 93.6001 140.1 110.3 140.1C126.4 140.1 140.1 69.1001 140.1 52.4001C140.1 36.3001 69.1001 22.6001 52.4001 22.6001Z" fill="#060606"/>
<path d="M113.2 138.9C99.3 138.9 23.8 127.6 23.8 113.1C23.8 99.2002 35.1 23.7002 49.6 23.7002C63.5 23.7002 139 35.0002 139 49.5002C138.9 63.4002 127.6 138.9 113.2 138.9ZM49.5 24.7002C36.5 24.7002 24.7001 96.9002 24.7001 113.1C24.7001 126.1 96.9001 137.9 113.1 137.9C126.1 137.9 137.9 65.7002 137.9 49.5002C137.9 36.5002 65.8 24.7002 49.5 24.7002Z" fill="#060606"/>
<path d="M116.1 136.8C105.6 136.8 25.8999 127.9 25.8999 116.1C25.8999 105.6 34.7999 25.8999 46.5999 25.8999C57.0999 25.8999 136.8 34.7999 136.8 46.5999C136.8 57.0999 127.8 136.8 116.1 136.8ZM46.5999 26.8999C36.2999 26.8999 26.8999 103.5 26.8999 116.1C26.8999 126.4 103.5 135.8 116.1 135.8C126.4 135.8 135.8 59.1999 135.8 46.5999C135.8 36.2999 59.1999 26.8999 46.5999 26.8999Z" fill="#060606"/>
<path d="M119 134.6C114.8 134.6 28.1001 128.4 28.1001 118.9C28.1001 114.7 34.3001 28 43.8001 28C48.0001 28 134.7 34.2 134.7 43.7C134.6 47.9 128.5 134.6 119 134.6ZM43.7001 29.1C36.2001 29.1 29.0001 109.7 29.0001 119C29.0001 126.5 109.6 133.7 118.9 133.7C126.4 133.7 133.6 53.1 133.6 43.8C133.6 36.2 53.1001 29.1 43.7001 29.1Z" fill="#060606"/>
<path d="M121.9 132.5C118.8 132.5 95.9 131.3 74.2 129.5C30.3 125.9 30.3 123 30.3 121.9C30.3 118.8 31.5 95.8998 33.3 74.1998C36.9 30.2998 39.8001 30.2998 40.9001 30.2998C44.0001 30.2998 66.9 31.4998 88.6 33.2998C132.5 36.8998 132.5 39.7998 132.5 40.8998C132.5 43.9998 131.3 66.8998 129.5 88.5998C125.9 132.5 123 132.5 121.9 132.5ZM40.8 31.1998C40.3 31.1998 37.5001 33.2998 34.2001 74.1998C32.3001 96.8998 31.2001 119.3 31.2001 121.8C31.2001 122.3 33.3 125.1 74.2 128.4C96.9 130.3 119.3 131.4 121.8 131.4C122.3 131.4 125.1 129.3 128.4 88.3998C130.3 65.6998 131.4 43.2998 131.4 40.7998C131.4 40.2998 129.3 37.4998 88.4001 34.1998C65.7001 32.2998 43.4 31.1998 40.8 31.1998Z" fill="#060606"/>
<path d="M124.8 130.3C123.4 130.3 100.5 129.7 77.7999 128.8C32.3999 127 32.3999 125.6 32.3999 124.7C32.3999 123.3 32.9999 100.4 33.8999 77.6998C35.6999 32.2998 37.0999 32.2998 37.9999 32.2998C39.3999 32.2998 62.2999 32.8998 84.9999 33.7998C130.4 35.5998 130.4 36.9998 130.4 37.8998C130.4 39.2998 129.8 62.1998 128.9 84.8998C127 130.3 125.7 130.3 124.8 130.3ZM33.3999 124.6C37.5999 127.1 119.1 129.3 124.6 129.3C127.1 125.1 129.3 43.5998 129.3 38.0998C125.1 35.5998 43.5999 33.3998 38.0999 33.3998C35.5999 37.5998 33.3999 119 33.3999 124.6Z" fill="#060606"/>
<path d="M128.2 128.2H34.5V34.5H128.1V128.2H128.2ZM35.5 127.2H127.1V35.5H35.5V127.2Z" fill="#060606"/>
</g>
<defs>
<clipPath id="clip0">
<rect width="162.7" height="162.7" fill="white"/>
</clipPath>
</defs>
</svg>
