<svg width="161" height="161" viewBox="0 0 161 161" fill="none" xmlns="http://www.w3.org/2000/svg">
<g clip-path="url(#clip0)">
<path d="M80.4 160.8C58.9 160.8 38.7 152.4 23.6 137.3C8.5 122.2 0 101.9 0 80.4C0 36.1 36.1 0 80.4 0C101.9 0 122.1 8.4 137.2 23.5C152.3 38.6 160.7 58.9 160.7 80.3C160.7 101.7 152.3 122 137.2 137.1C122 152.4 101.9 160.8 80.4 160.8ZM80.4 1C36.6 1 1 36.6 1 80.4C1 101.6 9.3 121.5 24.3 136.5C39.3 151.5 59.2 159.8 80.4 159.8C101.6 159.8 121.5 151.5 136.5 136.5C151.5 121.5 159.8 101.6 159.8 80.4C159.8 59.2 151.5 39.3 136.5 24.3C121.5 9.3 101.6 1 80.4 1Z" fill="#060606"/>
<path d="M80.4 157.6C59.3 157.6 37.7 149.1 24.1 135.5C11.2 122.7 3.5 101.6 3.5 79.2999C3.5 59.3999 11.8 39.3999 26.3 24.4999C41.1 9.2999 60.3 0.899902 80.4 0.899902C99.8 0.899902 119.5 9.4999 134.4 24.4999C148.7 38.7999 157.2 59.2999 157.2 79.2999C157.2 101.6 149.5 122.7 136.6 135.6C123 149.2 101.5 157.6 80.4 157.6ZM80.4 1.8999C60.6 1.8999 41.7 10.1999 27 25.1999C12.7 39.8999 4.5 59.5999 4.5 79.2999C4.5 101.4 12.1 122.2 24.8 134.9C38.2 148.3 59.5 156.7 80.4 156.7C101.2 156.7 122.5 148.3 136 134.9C148.7 122.2 156.3 101.4 156.3 79.2999C156.3 59.4999 147.9 39.2999 133.8 25.1999C119 10.3999 99.5 1.8999 80.4 1.8999Z" fill="#060606"/>
<path d="M80.4 154.5C59.7 154.5 36.8 146 24.7 133.9C11.7 120.9 7 96.5999 7 78.1999C7 59.4999 15.1 40.2999 29.1 25.4999C43.3 10.4999 62 1.8999 80.4 1.8999C97.7 1.8999 116.9 10.6999 131.6 25.4999C145 38.8999 153.7 59.5999 153.7 78.1999C153.7 96.5999 149.1 120.9 136.1 133.9C124 146 101.1 154.5 80.4 154.5ZM80.4 2.7999C62.3 2.7999 43.9 11.2999 29.8 26.0999C15.9 40.7999 8 59.6999 8 78.1999C8 96.3999 12.6 120.4 25.4 133.2C37.4 145.2 60 153.5 80.4 153.5C100.8 153.5 123.5 145.1 135.4 133.2C148.2 120.4 152.8 96.3999 152.8 78.1999C152.8 59.7999 144.2 39.3999 131 26.0999C116.4 11.4999 97.5 2.7999 80.4 2.7999Z" fill="#060606"/>
<path d="M80.4001 151.4C62.7001 151.4 37.3001 144.2 25.3001 132.3C12.0001 119 10.6001 89.2998 10.6001 77.0998C10.6001 59.6998 18.4001 41.1998 32.0001 26.3998C45.8001 11.3998 63.5001 2.7998 80.5001 2.7998C98.8001 2.7998 117.5 14.9998 129 26.3998C141.6 38.9998 150.4 59.7998 150.4 77.0998C150.4 89.2998 149 119 135.7 132.2C123.5 144.2 98.1001 151.4 80.4001 151.4ZM80.4001 3.6998C63.7001 3.6998 46.3001 12.1998 32.6001 26.9998C19.2001 41.5998 11.5001 59.7998 11.5001 76.9998C11.5001 88.9998 12.9001 118.5 25.9001 131.5C37.7001 143.3 62.9001 150.4 80.4001 150.4C97.9001 150.4 123.1 143.3 134.9 131.5C147.9 118.5 149.3 89.0998 149.3 76.9998C149.3 59.9998 140.6 39.3998 128.2 26.9998C116.9 15.7998 98.4001 3.6998 80.4001 3.6998Z" fill="#060606"/>
<path d="M80.4001 148.3C71.9001 148.3 60.9001 146.5 51.0001 143.6C39.8001 140.2 30.8001 135.6 25.8001 130.6C15.4001 120.2 14.1001 95.8998 14.1001 75.9998C14.1001 59.9998 21.8001 41.8998 34.7001 27.3998C48.1001 12.3998 64.8001 3.7998 80.4001 3.7998C96.6001 3.7998 114.6 15.9998 126.1 27.3998C137.6 38.9998 146.7 60.2998 146.7 75.9998C146.7 95.8998 145.4 120.2 135 130.6C130 135.6 121.1 140.2 109.8 143.6C99.9001 146.5 88.9001 148.3 80.4001 148.3ZM80.4001 4.6998C65.0001 4.6998 48.6001 13.1998 35.4001 27.9998C22.6001 42.2998 15.0001 60.2998 15.0001 75.9998C15.0001 114.1 21.6001 125 26.5001 129.9C36.8001 140.2 63.2001 147.3 80.4001 147.3C97.6001 147.3 124.1 140.1 134.3 129.9C144.6 119.6 145.8 94.1998 145.8 75.9998C145.8 60.4998 136.8 39.3998 125.4 27.9998C114.1 16.6998 96.4001 4.6998 80.4001 4.6998Z" fill="#060606"/>
<path d="M80.4001 145.1C65.0001 145.1 36.3001 138.8 26.4001 128.9C17.3001 119.8 17.5001 95.6002 17.6001 79.6002C17.6001 77.9002 17.6001 76.3002 17.6001 74.9002C17.6001 60.2002 25.0001 42.8002 37.5001 28.4002C50.5001 13.4002 66.1001 4.7002 80.4001 4.7002C98.2001 4.7002 117.7 22.8002 123.3 28.3002C132.9 37.9002 143.2 58.9002 143.2 74.9002C143.2 76.4002 143.2 77.9002 143.2 79.6002C143.3 95.6002 143.5 119.8 134.4 128.9C124.5 138.8 95.8001 145.1 80.4001 145.1ZM80.4001 5.6002C66.4001 5.6002 51.0001 14.1002 38.2001 29.0002C25.9001 43.3002 18.5001 60.5002 18.5001 75.0002C18.5001 76.5002 18.5001 78.0002 18.5001 79.7002C18.4001 95.6002 18.2001 119.5 27.1001 128.4C36.8001 138.1 65.2001 144.4 80.5001 144.4C95.8001 144.4 124.1 138.2 133.9 128.4C142.8 119.5 142.6 95.6002 142.5 79.7002C142.5 78.0002 142.5 76.4002 142.5 75.0002C142.5 59.3002 132.3 38.5002 122.8 29.0002C117.1 23.5002 97.9001 5.6002 80.4001 5.6002Z" fill="#060606"/>
<path d="M80.4001 142C66.8001 142 36.1001 136.4 27.0001 127.3C19.5001 119.8 20.3001 98.7001 20.9001 83.2001C21.0001 79.7001 21.2001 76.5001 21.2001 73.8001C21.2001 46.3001 52.4001 5.6001 80.5001 5.6001C95.3001 5.6001 113.4 22.1001 120.6 29.3001C129.5 38.2001 139.8 59.6001 139.8 73.8001C139.8 76.4001 139.9 79.7001 140.1 83.2001C140.7 98.7001 141.5 119.8 134 127.3C124.7 136.4 94.0001 142 80.4001 142ZM80.4001 6.5001C56.8001 6.5001 22.0001 42.0001 22.0001 73.8001C22.0001 76.4001 21.9001 79.7001 21.7001 83.2001C21.1001 98.5001 20.4001 119.4 27.5001 126.6C36.5001 135.6 66.8001 141.1 80.3001 141.1C93.8001 141.1 124.1 135.6 133.1 126.6C140.3 119.4 139.5 98.5001 138.9 83.2001C138.8 79.7001 138.6 76.4001 138.6 73.8001C138.6 59.7001 128.4 38.6001 119.6 29.9001C112.8 22.9001 94.9001 6.5001 80.4001 6.5001Z" fill="#060606"/>
<path d="M80.3999 138.9C68.2999 138.9 35.7999 133.9 27.4999 125.6C21.2999 119.4 22.7999 99.5001 23.8999 84.9001C24.2999 80.0001 24.5999 75.8001 24.5999 72.7001C24.5999 60.7001 31.6999 44.4001 43.0999 30.3001C54.9999 15.5001 68.9999 6.6001 80.3999 6.6001C89.3999 6.6001 102 14.6001 117.7 30.3001C125.8 38.4001 136.2 60.1001 136.2 72.8001C136.2 75.9001 136.5 80.1001 136.9 85.0001C138 99.5001 139.6 119.4 133.3 125.7C125 133.8 92.4999 138.9 80.3999 138.9ZM80.3999 7.4001C56.1999 7.4001 25.4999 47.9001 25.4999 72.7001C25.4999 75.8001 25.1999 80.0001 24.7999 84.9001C23.6999 99.3001 22.1999 119 28.1999 124.9C36.2999 133 68.4999 137.9 80.4999 137.9C92.4999 137.9 124.7 133 132.8 124.9C138.8 118.9 137.3 99.2001 136.2 84.9001C135.8 80.0001 135.5 75.8001 135.5 72.7001C135.5 60.2001 125.3 38.9001 117.3 30.8001C101.5 15.3001 89.1999 7.4001 80.3999 7.4001Z" fill="#060606"/>
<path d="M80.4001 135.7C70.3001 135.7 35.7001 131.5 28.1001 123.9C22.8001 118.6 25.1001 100.3 26.8001 85.6C27.5001 79.8 28.1001 74.7 28.1001 71.6C28.1001 61 35.1001 45.1 45.8001 31.2C57.4001 16.4 70.3001 7.5 80.4001 7.5C91.2001 7.5 106.7 23 114.1 30.4L114.9 31.2C122.2 38.5 132.7 60.7 132.7 71.6C132.7 74.8 133.3 79.8 134 85.6C135.8 100.3 138 118.6 132.7 123.9C125.1 131.5 90.5001 135.7 80.4001 135.7ZM80.4001 8.3C59.2001 8.3 29.0001 49.3 29.0001 71.6C29.0001 74.8 28.4001 79.9 27.7001 85.7C26.0001 99.5 23.7001 118.3 28.7001 123.3C35.7001 130.3 68.8001 134.9 80.4001 134.9C92.0001 134.9 125.2 130.3 132.1 123.3C137.1 118.3 134.8 99.5 133.1 85.7C132.4 79.8 131.8 74.8 131.8 71.6C131.8 60.8 121.5 39 114.3 31.8L113.5 31C106.2 23.6 90.9001 8.3 80.4001 8.3Z" fill="#060606"/>
<path d="M80.3999 132.6C71.4999 132.6 35.2999 128.8 28.6999 122.2C24.2999 117.8 27.1999 100 29.5999 85.8C30.6999 79.2 31.6999 73.6 31.6999 70.5C31.6999 61.3 38.4999 45.9 48.6999 32.2C59.6999 17.4 71.5999 8.5 80.3999 8.5C88.9999 8.5 101.8 21.6 109.4 29.5C110.4 30.5 111.3 31.5 112.1 32.3C118.7 38.9 129.1 61 129.1 70.7C129.1 73.8 130.1 79.4 131.2 86C133.6 100.2 136.6 118 132.1 122.4C125.5 128.8 89.1999 132.6 80.3999 132.6ZM80.3999 9.2C60.7999 9.2 32.4999 52.2 32.4999 70.5C32.4999 73.6 31.4999 79.3 30.3999 85.9C28.1999 99.2 25.0999 117.5 29.1999 121.6C35.1999 127.6 70.0999 131.7 80.3999 131.7C90.6999 131.7 125.5 127.6 131.6 121.6C135.8 117.4 132.7 99.2 130.4 85.9C129.3 79.3 128.3 73.6 128.3 70.5C128.3 61.2 117.9 39.1 111.5 32.7C110.7 31.9 109.8 31 108.8 29.9C101.8 22.7 88.6999 9.2 80.3999 9.2Z" fill="#060606"/>
<path d="M80.4 129.5C71.7 129.5 34.8 126.2 29.3 120.6C25.6 116.9 29.3 99.5999 32.4 85.5999C34 78.3999 35.3 72.1999 35.3 69.3999C35.3 53.1999 63.3 9.3999 80.5 9.3999C87.4 9.3999 98.7 21.6999 105.5 28.9999C107 30.6999 108.4 32.0999 109.4 33.0999C115.2 38.8999 125.7 61.1999 125.7 69.3999C125.7 72.1999 127 78.3999 128.6 85.5999C131.6 99.4999 135.4 116.9 131.7 120.6C126 126.1 89.1 129.5 80.4 129.5ZM80.4 10.1999C73.1 10.1999 62.5 18.9999 52.1 33.6999C42.4 47.1999 36 61.5999 36 69.3999C36 72.2999 34.6 78.4999 33.1 85.6999C30.3 98.6999 26.4 116.6 29.8 120C35.1 125.3 72 128.7 80.4 128.7C88.8 128.7 125.7 125.3 131 120C134.4 116.6 130.6 98.6999 127.7 85.6999C126.1 78.4999 124.8 72.1999 124.8 69.3999C124.8 61.4999 114.3 39.1999 108.7 33.5999C107.7 32.5999 106.4 31.1999 104.8 29.4999C98.2 22.2999 87 10.1999 80.4 10.1999Z" fill="#060606"/>
<path d="M80.4 126.3C73.9 126.3 34.5 123.5 29.8 118.9C26.8 115.9 31.1 99.4998 34.9 85.0998C36.9 77.3998 38.7 70.7998 38.7 68.2998C38.7 54.5998 66.2 10.2998 80.4 10.2998C85.9 10.2998 95.6 21.5998 102 28.9998C103.9 31.1998 105.5 32.9998 106.5 33.9998C110.9 38.3998 122.1 60.9998 122.1 68.1998C122.1 70.5998 123.9 77.2998 125.9 84.9998C129.7 99.3998 134.1 115.8 131 118.8C126.3 123.6 86.9 126.3 80.4 126.3ZM80.4 11.0998C74.5 11.0998 64.7 20.0998 54.9 34.5998C45.8 47.9998 39.4 61.7998 39.4 68.2998C39.4 70.7998 37.6 77.4998 35.6 85.2998C32.2 98.0998 27.6 115.7 30.3 118.4C34.6 122.7 73 125.6 80.4 125.6C87.8 125.6 126.2 122.7 130.5 118.4C133.2 115.7 128.6 98.0998 125.2 85.2998C123.1 77.5998 121.4 70.8998 121.4 68.2998C121.4 61.7998 110.6 39.1998 106 34.5998C104.9 33.4998 103.3 31.6998 101.5 29.4998C95.5 22.5998 85.5 11.0998 80.4 11.0998Z" fill="#060606"/>
<path d="M80.3999 123.2C76.1999 123.2 34.1999 121.1 30.3999 117.2C28.1999 115 32.0999 101.6 37.4999 84.4002C39.9999 76.3002 42.1999 69.2002 42.1999 67.2002C42.1999 56.2002 68.7999 11.2002 80.2999 11.2002C84.4999 11.2002 92.7999 21.6002 98.7999 29.2002C100.8 31.8002 102.6 34.0002 103.6 34.9002C107.1 38.4002 118.5 61.2002 118.5 67.1002C118.5 69.1002 120.7 76.2002 123.2 84.3002C128.6 101.5 132.5 114.9 130.3 117.1C126.6 121.1 84.5999 123.2 80.3999 123.2ZM80.3999 12.0002C69.4999 12.0002 42.9999 56.8002 42.9999 67.3002C42.9999 69.4002 40.7999 76.5002 38.1999 84.7002C34.1999 97.4002 28.7999 114.7 30.8999 116.8C34.3999 120.3 74.7999 122.5 80.3999 122.5C85.9999 122.5 126.4 120.2 129.9 116.8C132 114.7 126.6 97.3002 122.6 84.7002C120 76.5002 117.8 69.4002 117.8 67.3002C117.8 62.1002 106.9 39.3002 103.1 35.6002C102.1 34.6002 100.4 32.5002 98.2999 29.8002C93.0999 23.1002 84.2999 12.0002 80.3999 12.0002Z" fill="#060606"/>
<path d="M80.4001 120.1C78.1001 120.1 33.9001 118.5 31.0001 115.6C29.3001 113.9 33.7001 101.3 40.1001 83.6002C43.1001 75.4002 45.8001 67.7002 45.8001 66.1002C45.8001 58.3002 71.4001 12.2002 80.4001 12.2002C83.2001 12.2002 89.5001 20.5002 96.2001 29.7002C98.3001 32.6002 100.1 35.2002 100.9 35.9002C103.9 38.9002 115 61.9002 115 66.0002C115 67.5002 117.8 75.3002 120.7 83.5002C127.1 101.2 131.5 113.8 129.8 115.5C126.9 118.5 82.7001 120.1 80.4001 120.1ZM80.4001 12.9002C76.9001 12.9002 69.3001 21.9002 60.4001 36.4002C52.4001 49.5002 46.4001 62.3002 46.4001 66.1002C46.4001 67.8002 43.8001 74.8002 40.6001 83.8002C36.3001 95.7002 29.9001 113.6 31.4001 115.1C33.9001 117.6 75.0001 119.4 80.4001 119.4C85.8001 119.4 126.9 117.6 129.4 115.1C130.9 113.6 124.4 95.7002 120.2 83.8002C117 74.8002 114.4 67.8002 114.4 66.1002C114.4 62.2002 103.2 39.2002 100.5 36.4002C99.7001 35.6002 97.9001 33.1002 95.7001 30.1002C90.9001 23.7002 83.1001 12.9002 80.4001 12.9002Z" fill="#060606"/>
<path d="M80.3999 117C79.8999 117 33.5999 116 31.4999 114C30.3999 112.9 33.9999 103.5 42.4999 82.7998C45.9999 74.2998 49.2999 66.1998 49.2999 65.1998C49.2999 59.1998 74.7999 13.2998 80.3999 13.2998C82.2999 13.2998 87.4999 21.0998 93.5999 30.4998C95.6999 33.6998 97.4999 36.5998 98.0999 37.0998C99.9999 38.9998 111.5 62.2998 111.5 65.1998C111.5 66.1998 114.8 74.2998 118.3 82.7998C126.8 103.5 130.4 113 129.3 114C127.2 116 80.7999 117 80.3999 117ZM80.3999 13.7998C75.1999 13.7998 49.8999 59.4998 49.8999 64.9998C49.8999 66.0998 47.2999 72.4998 43.0999 82.8998C38.3999 94.4998 31.1999 112.1 31.9999 113.5C33.5999 115.1 75.2999 116.3 80.3999 116.3C85.4999 116.3 127.2 115 128.8 113.5C129.6 112.2 122.4 94.5998 117.7 82.9998C113.5 72.5998 110.9 66.1998 110.9 65.0998C110.9 62.3998 99.3999 39.1998 97.6999 37.4998C97.0999 36.8998 95.2999 34.1998 93.0999 30.7998C88.8999 24.3998 82.0999 13.7998 80.3999 13.7998Z" fill="#060606"/>
<path d="M80.4001 113.8C79.9001 113.8 33.2001 113.3 32.1001 112.2C31.5001 111.6 34.0001 105.9 45.0001 81.6001C49.0001 72.8001 52.7001 64.6001 52.8001 63.9001C52.8001 62.4001 59.2001 49.5001 65.4001 38.0001C70.2001 29.1001 78.5001 14.1001 80.3001 14.1001C81.1001 14.1001 83.6001 17.9001 91.1001 31.0001C93.1001 34.4001 94.9001 37.6001 95.2001 37.9001C96.0001 38.7001 108 62.4001 108 64.0001C108.1 64.7001 111.8 72.9001 115.8 81.7001C126.8 106 129.3 111.7 128.7 112.3C127.6 113.3 80.9001 113.8 80.4001 113.8ZM32.6001 111.9C35.1001 112.7 78.4001 113.2 80.4001 113.2C82.4001 113.2 125.3 112.6 128.2 111.8C128 109.9 120.6 93.8001 115.2 81.9001C109.6 69.6001 107.3 64.5001 107.3 63.9001C107.3 62.8001 95.8001 39.3001 94.8001 38.3001C94.5001 38.0001 93.1001 35.7001 90.6001 31.3001C87.1001 25.3001 81.4001 15.2001 80.3001 14.7001C79.3001 15.0001 74.5001 22.4001 65.8001 38.4001C59.1001 51.1001 53.4001 62.7001 53.4001 64.0001C53.4001 64.6001 51.1001 69.6001 45.5001 82.0001C40.1001 93.8001 32.8001 110.1 32.6001 111.9Z" fill="#060606"/>
<path d="M128.4 110.7H32.3999L32.5999 110.3L80.3999 14.7002L128.4 110.7ZM33.2999 110.1H127.4L80.3999 16.0002L33.2999 110.1Z" fill="#060606"/>
</g>
<defs>
<clipPath id="clip0">
<rect width="160.8" height="160.8" fill="white"/>
</clipPath>
</defs>
</svg>
