<svg width="162" height="135" viewBox="0 0 162 135" fill="none" xmlns="http://www.w3.org/2000/svg">
<path d="M0 135L79.4831 0L162 135H0Z" fill="#FFF5DD"/>
<path d="M79.4235 130.896C70.5286 130.907 61.7187 129.148 53.501 125.719C45.2834 122.29 37.8202 117.259 31.5393 110.914C25.4214 104.687 20.5603 97.3238 17.2255 89.2324C13.7689 80.8288 12.0244 71.8111 12.096 62.7151V60.5072H146.904V62.7151C146.954 71.8274 145.184 80.8568 141.698 89.2656C138.312 97.3639 133.403 104.726 127.242 110.947C120.97 117.284 113.517 122.308 105.31 125.732C97.1034 129.155 88.3061 130.91 79.4235 130.896Z" stroke="#050505" stroke-width="2" stroke-miterlimit="10"/>
<path d="M18.9682 57.1953C19.9984 56.1575 77.8452 55.5172 79.4125 55.5172C81.6045 55.5172 139.956 56.7868 140.898 58.6305C140.898 58.6857 140.953 60.5072 140.986 60.5735C141.321 68.9402 139.998 77.2903 137.095 85.1367C134.244 92.8956 129.88 100.001 124.261 106.035C118.513 112.21 111.568 117.131 103.856 120.492C96.1431 123.853 87.8273 125.583 79.4237 125.575C71.2658 125.585 63.1861 123.972 55.6494 120.827C48.1127 117.682 41.2672 113.067 35.5066 107.249C29.324 101.031 24.6214 93.482 21.752 85.1697C18.8885 76.8452 17.8673 67.9906 18.76 59.2265C18.8257 59.083 18.8914 57.1953 18.9682 57.1953Z" stroke="#050505" stroke-width="2" stroke-miterlimit="10"/>
<path d="M26.2453 53.762C28.3058 51.6865 76.2887 50.4501 79.4232 50.4501C83.8072 50.4501 132.798 52.9782 134.683 56.6765C134.738 56.7869 134.793 58.3213 134.848 58.4317C135.513 66.0473 134.675 73.7201 132.382 81.0078C130.091 88.4209 126.291 95.2716 121.224 101.122C116.018 107.132 109.593 111.946 102.381 115.241C95.1703 118.536 87.3416 120.234 79.4232 120.221C72.007 120.228 64.6621 118.76 57.8104 115.901C50.9587 113.043 44.7348 108.849 39.4958 103.562C33.2893 97.3149 28.8089 89.5444 26.4973 81.0188C24.2546 72.7502 24.0289 64.0582 25.8396 55.6829C25.9492 55.4841 26.0919 53.8834 26.2453 53.762Z" stroke="#050505" stroke-width="2" stroke-miterlimit="10"/>
<path d="M33.5121 50.3618C36.5919 47.2597 74.7109 45.3387 79.4237 45.3387C85.9997 45.3387 125.631 49.1363 128.458 54.6783C128.546 54.8438 128.656 56.0693 128.711 56.257C130.738 62.9581 129.324 70.1339 127.615 76.846C125.89 83.9081 122.655 90.5054 118.134 96.1764C113.474 102.011 107.572 106.717 100.864 109.946C94.1564 113.175 86.8143 114.845 79.3798 114.833C72.6943 114.842 66.0727 113.521 59.8959 110.944C53.7191 108.367 48.1086 104.587 43.3868 99.8194C37.1462 93.5452 32.8869 85.5523 31.1446 76.846C29.4883 68.6046 30.0678 60.0659 32.8218 52.1282C33.0739 51.8742 33.2929 50.5716 33.5121 50.3618Z" stroke="#050505" stroke-width="2" stroke-miterlimit="10"/>
<path d="M40.7781 46.9615C44.8881 42.8216 73.1429 40.2605 79.4121 40.2605C88.1801 40.2605 118.452 45.3166 122.211 52.7131C122.321 52.9339 122.463 53.8171 122.54 54.1041C124.567 60.0104 124.019 66.4907 122.923 72.7061C121.771 79.4099 119.101 85.7562 115.12 91.2526C111.014 96.909 105.64 101.508 99.4344 104.676C93.2292 107.843 86.3685 109.489 79.4121 109.479C73.4636 109.487 67.5721 108.311 62.0762 106.019C56.5803 103.726 51.5887 100.363 47.3872 96.1211C41.0969 89.8063 37.0547 81.5744 35.8899 72.7061C34.7939 64.1172 35.3969 55.2412 39.9015 48.5954C40.1594 48.0327 40.452 47.487 40.7781 46.9615V46.9615Z" stroke="#050505" stroke-width="2" stroke-miterlimit="10"/>
<path d="M48.056 43.5613C53.1962 38.3837 71.5872 35.1823 79.4236 35.1823C90.4494 35.1823 111.284 41.5079 115.997 50.7481C116.139 51.0352 116.293 51.6644 116.414 51.9514C118.452 57.1069 118.759 62.8365 118.222 68.5109C117.645 74.8474 115.538 80.9455 112.084 86.2737C108.538 91.7427 103.692 96.2337 97.9871 99.3393C92.2819 102.445 85.8974 104.067 79.4124 104.059C74.2002 104.064 69.0386 103.032 64.2236 101.022C59.4086 99.0117 55.035 96.0632 51.3547 92.3455C45.0122 85.9788 41.1934 77.5003 40.6141 68.4999C40.0551 59.8117 42.0389 51.3221 46.96 44.9964C47.3014 44.5 47.6672 44.0211 48.056 43.5613V43.5613Z" stroke="#050505" stroke-width="2" stroke-miterlimit="10"/>
<path d="M113.498 64.4264C113.498 73.5321 109.907 82.2649 103.515 88.7036C97.1223 95.1424 88.4523 98.7597 79.4122 98.7597C74.9334 98.7669 70.4973 97.8819 66.3593 96.156C62.2212 94.43 58.4629 91.897 55.3002 88.7026C52.1289 85.517 49.6142 81.7312 47.9006 77.5631C46.1871 73.3949 45.3087 68.9267 45.3158 64.4153C45.3087 59.904 46.1871 55.4356 47.9006 51.2675C49.6142 47.0993 52.1289 43.3137 55.3002 40.1281C58.4629 36.9337 62.2212 34.4005 66.3593 32.6746C70.4973 30.9486 74.9334 30.0638 79.4122 30.071C83.8903 30.071 88.3246 30.9598 92.4615 32.6866C96.5984 34.4133 100.357 36.9442 103.522 40.1347C106.688 43.3252 109.198 47.1127 110.909 51.2808C112.621 55.4489 113.501 59.9158 113.498 64.4264V64.4264Z" stroke="#050505" stroke-width="2" stroke-miterlimit="10"/>
</svg>
