<svg width="162" height="162" viewBox="0 0 162 162" fill="none" xmlns="http://www.w3.org/2000/svg">
<path d="M162 162H0L81 0L162 162ZM1.6 161H160.4L81 2.2L1.6 161Z" fill="#060606"/>
<path d="M158.1 161.7H3.8999L41.7999 82.7998L69.1999 24.9998L80.9999 3.7998L92.7999 24.9998L120.2 82.8998L158.1 161.7ZM5.4999 160.7H156.5L119.3 83.1998L91.8999 25.3998L80.9999 5.8998L70.0999 25.3998L42.6999 83.1998L5.4999 160.7Z" fill="#060606"/>
<path d="M154.2 161.5H7.80005L43.2001 84.5L68.8001 27.3L81 7.5L93.2 27.2L118.8 84.5L154.2 161.5ZM9.40005 160.5H152.6L117.9 85L92.3 27.7L81 9.5L69.7 27.8L44.1 85L9.40005 160.5Z" fill="#060606"/>
<path d="M150.3 161.2H11.7L44.5999 86.1998L68.4 29.4998L81 11.2998L93.7 29.6998L117.4 86.2998L150.3 161.2ZM13.3 160.2H148.8L116.5 86.6998L92.8 30.0998L81 13.0998L69.1999 30.0998L45.5 86.6998L13.3 160.2Z" fill="#060606"/>
<path d="M146.4 161H15.6001L15.9001 160.3L45.9001 88.0001L67.8001 32.0001V31.9001L81.0001 15.1001L94.1001 32.1001L116 88.1001L146.4 161ZM17.1001 159.9H144.8L115 88.4001L93.2001 32.5001L81.0001 16.8001L68.8001 32.5001L46.9001 88.4001L17.1001 159.9Z" fill="#060606"/>
<path d="M142.5 160.7H19.5L47.4 89.6998L67.5 34.2998L67.6 34.1998L81 18.7998L94.6 34.3998L114.7 89.6998L142.5 160.7ZM21 159.7H141L113.7 90.0998L93.6 34.7998L81 20.3998L68.4 34.7998L48.3 90.0998L21 159.7Z" fill="#060606"/>
<path d="M138.7 160.5H23.3999L48.6999 91.5L66.9999 36.6L67.0999 36.5L80.9999 22.5L94.9999 36.6L113.3 91.4L138.7 160.5ZM24.8999 159.4H137.1L112.3 91.8L94.0999 37.2L80.9999 24.1L67.8999 37.2L49.6999 91.8L24.8999 159.4Z" fill="#060606"/>
<path d="M134.8 160.2H27.2L27.4 159.5L50 93.1998L66.5 38.9998L66.5999 38.8998L81 26.2998L95.5 38.8998V38.9998L112 93.1998L134.8 160.2ZM28.7999 159.1H133.3L111 93.4998L94.5999 39.4998L81 27.6998L67.5 39.5998L51.0999 93.5998L28.7999 159.1Z" fill="#060606"/>
<path d="M130.9 160H31.1001L51.4001 94.9L66.1001 41.3L81.0001 30L95.9001 41.2V41.4L110.5 94.9L130.9 160ZM32.6001 158.9H129.3L109.5 95.3L95.0001 41.9L81.0001 31.4L67.0001 41.9L52.5001 95.2L32.6001 158.9Z" fill="#060606"/>
<path d="M127 159.7H35L35.2 159L52.7 96.5998L65.5 43.4998L81 33.7998L96.4 43.5998L109.2 96.6998L127 159.7ZM36.5 158.6H125.5L108.2 96.8998L95.4 44.2998L81 35.0998L66.6 44.2998L53.9 96.8998L36.5 158.6Z" fill="#060606"/>
<path d="M123.1 159.5H38.8999L39.0999 158.8L54.0999 98.4L65.0999 45.9L80.9999 37.5L96.7999 45.9L96.8999 46.2L107.9 98.4L123.1 159.5ZM40.3999 158.3H121.6L106.7 98.6L95.7999 46.6L80.9999 38.8L66.1999 46.7L55.2999 98.7L40.3999 158.3Z" fill="#060606"/>
<path d="M119.2 159.2H42.8L55.5 100.1L64.7 48.2002L81 41.2002L81.2 41.3002L97.3001 48.2002L97.4001 48.5002L106.5 100.1L119.2 159.2ZM44.3 158.1H117.8L105.4 100.4L96.3001 49.0002L81 42.4002L65.7 49.0002L56.6 100.3L44.3 158.1Z" fill="#060606"/>
<path d="M115.3 158.9H46.7L56.7999 101.8L64.1999 50.4999L81 44.8999L97.8 50.4999V50.8999L105.1 101.9L115.3 158.9ZM48.0999 157.8H113.9L104 102L96.6999 51.2999L81 46.0999L65.3 51.3999L58 102L48.0999 157.8Z" fill="#060606"/>
<path d="M111.4 158.7H50.7L58.2999 103.6L63.7999 52.8001L81 48.6001H81.0999L98.1999 52.8001L103.7 103.6L111.4 158.7ZM52 157.5H110L102.6 103.7L97.1999 53.7001L81 49.8001L64.9 53.7001L59.5 103.7L52 157.5Z" fill="#060606"/>
<path d="M107.4 158.4H54.6001L59.7001 105.3L63.4001 55.0998L81.0001 52.2998L98.7001 55.0998L102.4 105.3L107.4 158.4ZM55.9001 157.3H106.2L101.2 105.5L97.6001 56.1998L81.0001 53.4998L64.4001 56.0998L60.8001 105.4L55.9001 157.3Z" fill="#060606"/>
<path d="M103.5 158.2H58.5L61 107.1L62.8 57.5L81 56L99.1 57.4L100.9 107.1L103.5 158.2ZM59.7 157H102.3L99.8 107.1L98 58.5L81 57.2L64 58.5L62.2 107.1L59.7 157Z" fill="#060606"/>
<path d="M99.5999 157.9H62.3999V59.7002H99.6999V157.9H99.5999ZM63.5999 156.7H98.4999V60.9002H63.5999V156.7Z" fill="#060606"/>
</svg>
