<svg width="135" height="136" viewBox="0 0 135 136" fill="none" xmlns="http://www.w3.org/2000/svg">
<ellipse cx="67.5" cy="68" rx="67.5" ry="68" fill="#F4C645"/>
<path d="M85.4286 20.4445H50.5714V134.556H85.4286V20.4445Z" stroke="#050505" stroke-width="2" stroke-miterlimit="10"/>
<path d="M91.238 20.4445H46.2142V125.889H91.238V20.4445Z" stroke="#050505" stroke-width="2" stroke-miterlimit="10"/>
<path d="M95.5953 20.4445H40.4048V117.222H95.5953V20.4445Z" stroke="#050505" stroke-width="2" stroke-miterlimit="10"/>
<path d="M99.9524 20.4445H36.0476V108.556H99.9524V20.4445Z" stroke="#050505" stroke-width="2" stroke-miterlimit="10"/>
<path d="M104.309 20.4445H31.6904V99.8889H104.309V20.4445Z" stroke="#050505" stroke-width="2" stroke-miterlimit="10"/>
<path d="M108.667 20.4445H27.3334V91.2222H108.667V20.4445Z" stroke="#050505" stroke-width="2" stroke-miterlimit="10"/>
<path d="M114.476 20.4445H21.5238V82.5556H114.476V20.4445Z" stroke="#050505" stroke-width="2" stroke-miterlimit="10"/>
<path d="M118.833 20.4445H17.1666V73.8889H118.833V20.4445Z" stroke="#050505" stroke-width="2" stroke-miterlimit="10"/>
<path d="M123.191 20.4445H12.8096V65.2222H123.191V20.4445Z" stroke="#050505" stroke-width="2" stroke-miterlimit="10"/>
<path d="M127.548 20.4445H8.45239V55.1111H127.548V20.4445Z" stroke="#050505" stroke-width="2" stroke-miterlimit="10"/>
</svg>
