<svg id="Layer_1" data-name="Layer 1" xmlns="http://www.w3.org/2000/svg" viewBox="0 0 830 292"><defs><style>.cls-1{fill:#fff;}</style></defs><title>Horizontal-AltFi-Dark</title><path class="cls-1" d="M430.84,194.22l-3.71-11.71H392.88l-3.71,11.71h-23.8l34.39-96.44h20.49l34.8,96.44Zm-20.76-68.89L398.25,165h23.38Z"/><polygon class="cls-1" points="531.66 174.94 531.66 194.23 482.01 194.23 482.01 97.78 504.29 97.78 504.29 174.94 531.66 174.94"/><polygon class="cls-1" points="565.09 117.06 543.36 117.06 543.36 97.78 609.24 97.78 609.24 117.06 587.37 117.06 587.37 194.22 565.09 194.22 565.09 117.06"/><rect class="cls-1" x="614.33" y="181.55" width="74.27" height="12.68"/><polygon class="cls-1" points="736.88 116.51 736.88 142.56 773.33 142.56 773.33 160.88 736.88 160.88 736.88 194.22 714.6 194.22 714.6 97.78 773.33 97.78 773.33 116.51 736.88 116.51"/><rect class="cls-1" x="807.44" y="97.78" width="22.56" height="96.45"/><path class="cls-1" d="M145.74,196.07a50,50,0,1,1,35.33-14.67,49.6,49.6,0,0,1-35.33,14.67m0-92.43a42.32,42.32,0,1,0,29.9,12.4,42,42,0,0,0-29.9-12.4"/><path class="cls-1" d="M145.74,211.84a65.84,65.84,0,1,1,46.49-19.27,65.51,65.51,0,0,1-46.49,19.27m0-124a58.13,58.13,0,1,0,41,17,57.87,57.87,0,0,0-41-17"/><path class="cls-1" d="M145.74,227.63a81.63,81.63,0,1,1,57.64-23.89,81.18,81.18,0,0,1-57.64,23.89m0-155.55a73.92,73.92,0,1,0,52.2,21.62,73.52,73.52,0,0,0-52.2-21.62"/><path class="cls-1" d="M145.74,243.42a97.31,97.31,0,1,1,68.79-28.5,96.91,96.91,0,0,1-68.79,28.5m0-187.18a89.69,89.69,0,1,0,63.35,26.29,89,89,0,0,0-63.35-26.29"/><path class="cls-1" d="M145.74,259.21a113.21,113.21,0,1,1,79.94-33.12,112.6,112.6,0,0,1-79.94,33.12m0-218.72a105.52,105.52,0,1,0,74.51,30.87,104.93,104.93,0,0,0-74.51-30.87"/><path class="cls-1" d="M145.74,275a128.31,128.31,0,0,1-91.1-37.74c-50.23-50.32-50.23-132.2,0-182.51a128.64,128.64,0,0,1,182.19,0c50.23,50.31,50.23,132.19,0,182.51A128.31,128.31,0,0,1,145.74,275m0-250.36A120.23,120.23,0,0,0,60.08,60.19c-47.23,47.32-47.23,124.3,0,171.63a121.1,121.1,0,0,0,171.32,0c47.22-47.33,47.22-124.31,0-171.63a120.25,120.25,0,0,0-85.66-35.55"/><polygon class="cls-1" points="150.84 211.7 145.4 206.26 205.88 145.67 211.32 151.11 150.84 211.7"/><polygon class="cls-1" points="150.84 211.7 145.4 206.26 205.88 145.67 211.32 151.11 150.84 211.7"/><polygon class="cls-1" points="65.24 286.55 70.67 292 291.47 70.81 286.04 65.36 65.24 286.55"/><polygon class="cls-1" points="220.8 0 0 221.19 5.44 226.64 226.24 5.45 220.8 0"/></svg>